<svg width="1024" height="1024" viewBox="0 0 1024 1024" fill="none" xmlns="http://www.w3.org/2000/svg">
<rect width="1024" height="1024" fill="white"/>
<g clip-path="url(#clip0)">
<path d="M54.0049 184.374C54.0049 185.03 116.163 493.01 116.444 493.697C116.632 494.197 117.069 493.604 118.631 490.511C120.099 487.607 120.817 486.545 121.598 486.045C122.16 485.701 122.848 485.42 123.066 485.42C124.409 485.42 125.909 484.702 126.221 483.921C126.408 483.452 130.531 479.142 135.373 474.332C142.588 467.179 144.494 465.117 145.806 462.993L147.43 460.369L146.399 460.588C145.837 460.713 145.056 461.213 144.681 461.681C143.869 462.681 141.901 463.555 140.402 463.555C139.496 463.555 139.152 463.805 138.122 465.086L136.872 466.616L135.904 465.867L134.936 465.086L137.622 461.619C139.965 458.651 140.277 458.089 139.965 457.589C139.09 456.215 139.496 455.309 142.338 452.092C143.838 450.405 145.649 448.312 146.337 447.438C147.617 445.814 149.21 442.44 148.867 442.097C148.773 442.003 148.055 442.315 147.274 442.753C146.274 443.346 145.899 443.44 146.024 443.096C146.305 442.378 145.962 442.503 143.307 444.033C141.964 444.814 140.62 445.439 140.277 445.439C139.965 445.439 137.403 446.282 134.592 447.313C131.781 448.344 129.376 449.187 129.22 449.187C128.97 449.187 133.249 442.971 135.81 439.66C136.997 438.13 140.777 433.538 142.963 430.977C143.275 430.665 143.338 430.321 143.151 430.165C142.994 430.009 139.933 430.508 135.841 431.383C131.968 432.195 129.095 432.695 129.407 432.507C129.751 432.32 131.281 431.227 132.812 430.071C134.717 428.665 135.935 427.947 136.497 427.947C137.216 427.947 137.591 427.572 138.809 425.761C139.746 424.324 141.495 422.45 143.9 420.326C149.491 415.359 152.209 412.329 151.147 412.329C150.991 412.329 150.116 412.61 149.241 412.954C148.367 413.329 147.617 413.548 147.586 413.516C147.555 413.454 147.367 413.048 147.149 412.548C146.805 411.705 146.743 411.705 143.994 411.705C141.714 411.705 141.183 411.611 141.027 411.205C140.714 410.424 141.339 409.924 143.494 409.206C146.43 408.238 157.706 400.491 157.706 399.429C157.706 399.273 157.144 399.242 156.488 399.367C155.489 399.523 155.145 399.46 154.614 398.929L153.958 398.273L156.988 394.307C162.891 386.498 165.39 382.062 169.17 372.598C170.888 368.256 171.044 367.975 171.825 367.975C172.543 367.975 172.699 368.131 172.824 368.975C173.667 374.253 174.667 379.157 175.198 380.532C176.073 382.874 177.978 385.248 181.601 388.559L184.725 391.433L185.662 390.246C186.849 388.809 192.908 381.438 193.564 380.688C193.846 380.376 193.939 380.032 193.752 379.876C193.596 379.72 190.535 380.219 186.443 381.094C182.57 381.906 179.696 382.406 180.008 382.218C180.352 382.031 181.882 380.938 183.413 379.782C185.318 378.377 186.536 377.658 187.099 377.658C187.817 377.658 188.192 377.283 189.41 375.472C190.347 374.035 192.096 372.161 194.501 370.037C200.093 365.07 202.81 362.04 201.748 362.04C201.592 362.04 200.717 362.322 199.843 362.665C198.968 363.04 198.218 363.259 198.187 363.227C198.156 363.165 197.969 362.759 197.75 362.259C197.406 361.416 197.344 361.416 194.595 361.416C192.315 361.416 191.784 361.322 191.628 360.916C191.315 360.135 191.94 359.635 194.095 358.917C197.032 357.949 208.307 350.202 208.307 349.14C208.307 348.984 207.745 348.953 207.089 349.078C206.09 349.234 205.746 349.172 205.215 348.641L204.559 347.985L207.589 344.018C213.493 336.209 215.991 331.773 219.771 322.309C221.489 317.967 221.645 317.686 222.426 317.686C223.144 317.686 223.3 317.842 223.425 318.686C224.269 323.965 225.268 328.869 225.799 330.243C226.986 333.366 228.642 335.147 238.575 343.955C240.855 345.985 243.666 349.609 243.26 350.015C243.166 350.077 242.479 349.64 241.729 349.047C240.574 348.141 240.136 347.953 239.324 348.078C238.543 348.203 237.513 347.922 235.107 346.86C233.358 346.11 231.828 345.579 231.703 345.704C231.547 345.861 233.358 348.141 235.701 350.796C242.292 358.292 242.448 358.511 242.26 360.01C242.135 360.947 241.792 361.509 240.948 362.259C239.699 363.321 239.73 363.259 240.667 365.633C240.823 366.039 240.355 365.789 239.262 364.852C236.076 362.165 235.795 361.947 235.795 362.447C235.795 363.071 243.229 372.317 244.665 373.504C245.29 374.004 247.102 375.097 248.695 375.94C250.288 376.752 252.006 377.752 252.568 378.158C254.317 379.47 260.471 386.716 260.471 387.497C260.471 388.84 259.877 388.965 256.347 388.497C254.473 388.216 253.005 388.153 252.818 388.309C252.349 388.778 251.35 388.622 249.663 387.841L248.039 387.091L247.414 387.716L246.789 388.341L245.04 387.029C244.072 386.279 243.197 385.779 243.104 385.873C242.604 386.342 257.128 402.74 260.158 405.145L261.251 406.02L264.063 403.99C268.56 400.772 269.248 399.929 267.061 400.304C266.062 400.46 265.718 400.397 265.187 399.866L264.531 399.211L267.561 395.244C273.464 387.435 275.963 382.999 279.743 373.535C281.461 369.193 281.617 368.912 282.398 368.912C283.116 368.912 283.272 369.068 283.397 369.912C284.241 375.191 285.24 380.094 285.771 381.469C286.958 384.592 288.614 386.373 298.546 395.181C300.827 397.211 303.638 400.835 303.232 401.241C303.138 401.303 302.451 400.866 301.701 400.273C300.545 399.367 300.108 399.179 299.296 399.304C298.515 399.429 297.484 399.148 295.079 398.086C293.33 397.336 291.8 396.805 291.675 396.93C291.518 397.087 293.33 399.367 295.673 402.022C302.263 409.518 302.42 409.737 302.232 411.236C302.107 412.173 301.764 412.735 300.92 413.485C299.671 414.547 299.702 414.485 300.639 416.858C300.795 417.265 300.327 417.015 299.234 416.078C296.048 413.391 295.766 413.173 295.766 413.672C295.766 414.297 303.2 423.543 304.637 424.73C305.262 425.23 307.074 426.323 308.667 427.166C310.26 427.978 311.978 428.978 312.54 429.384C314.289 430.696 320.442 437.942 320.442 438.723C320.442 440.066 319.849 440.191 316.319 439.723C314.445 439.442 312.977 439.379 312.79 439.535C312.321 440.004 311.322 439.848 309.635 439.067L308.011 438.317L307.386 438.942L306.761 439.567L305.012 438.255C304.044 437.505 303.169 437.005 303.076 437.099C302.732 437.411 312.384 448.687 316.663 452.967C319.006 455.278 323.472 459.339 326.627 461.962C329.751 464.586 332.312 466.866 332.312 467.054C332.312 467.272 331.625 467.335 330.25 467.21C327.97 466.991 326.283 466.273 322.473 463.899L319.974 462.337L319.318 462.962L318.631 463.587L316.351 462.431C315.07 461.806 313.258 460.65 312.259 459.901C310.541 458.526 309.26 458.214 308.979 459.089C308.792 459.62 312.384 463.305 314.758 465.055C315.913 465.898 318.818 467.835 321.223 469.365L325.565 472.145L323.909 472.239C322.754 472.301 321.942 472.176 321.098 471.739L319.943 471.114L319.443 472.02C318.974 472.801 318.787 472.895 317.912 472.707C317.069 472.551 316.944 472.582 317.1 473.02C317.413 473.801 317.007 473.676 314.008 471.989C311.009 470.302 310.759 470.208 310.759 470.802C310.759 471.021 311.728 471.895 312.883 472.707C316.569 475.331 316.288 474.987 315.445 475.893C314.945 476.424 314.789 476.799 315.007 476.924C315.195 477.049 319.443 479.798 324.472 483.015C329.469 486.263 333.561 489.075 333.561 489.262C333.53 489.481 333.374 489.949 333.155 490.324L332.78 491.042L330.937 489.918C329.282 488.95 329.095 488.887 328.751 489.356C328.407 489.793 328.282 489.824 327.658 489.449C327.033 489.043 326.908 489.075 326.346 489.762C325.752 490.511 325.721 490.511 325.034 489.887C323.316 488.387 323.285 488.387 322.91 489.449C322.66 490.137 322.379 490.418 321.91 490.418C320.567 490.386 318.818 489.824 318.131 489.2C317.288 488.387 317.007 488.387 317.007 489.106C317.007 490.168 316.663 490.074 315.382 488.669C314.195 487.357 314.07 487.325 313.539 487.794C313.008 488.262 312.852 488.262 311.259 487.575C310.291 487.2 309.448 486.951 309.354 487.044C308.948 487.45 310.26 489.543 311.915 491.105C318.381 497.227 318.287 497.133 321.067 498.07C324.69 499.257 327.751 500.788 329.875 502.443C331.562 503.755 331.656 503.911 331.312 504.63C331.125 505.067 330.875 505.411 330.781 505.411C330.688 505.411 329.782 504.911 328.782 504.317C327.033 503.255 326.939 503.255 326.783 503.849C326.596 504.599 326.44 504.63 325.69 503.943C325.159 503.474 325.065 503.474 324.347 504.161L323.566 504.911L322.691 504.068C322.192 503.599 321.661 503.224 321.473 503.224C320.817 503.224 320.692 503.849 321.161 504.567L321.629 505.286L318.912 504.724C317.444 504.411 315.82 504.161 315.32 504.161C314.664 504.161 314.07 503.786 313.196 502.881C312.009 501.662 311.946 501.631 311.384 502.131C310.822 502.662 310.697 502.662 309.448 502.131C308.698 501.85 307.917 501.506 307.667 501.413C307.324 501.288 307.261 501.506 307.417 502.537C307.511 503.255 307.542 503.849 307.511 503.849C307.48 503.849 306.386 503.505 305.137 503.068C303.888 502.631 302.794 502.35 302.732 502.412C302.638 502.475 302.826 502.974 303.107 503.537C303.638 504.536 303.544 505.411 302.951 505.411C302.763 505.411 302.451 505.067 302.263 504.63C302.014 504.068 301.67 503.849 301.045 503.849C300.327 503.849 300.046 503.599 299.515 502.6C298.796 501.194 298.578 501.1 297.828 501.944C297.453 502.35 297.359 502.787 297.516 503.349C297.641 503.849 297.547 504.349 297.328 504.661C296.953 505.067 296.828 505.036 296.048 504.286C295.298 503.568 295.079 503.505 294.673 503.849C294.236 504.193 293.986 504.036 292.674 502.662C291.862 501.756 291.05 501.038 290.863 501.038C290.675 501.038 290.3 500.944 290.019 500.85C289.676 500.725 289.519 500.819 289.519 501.194C289.519 501.694 289.457 501.694 288.707 501.194C288.27 500.913 287.395 500.163 286.739 499.507C285.271 498.039 284.334 497.727 284.116 498.664C284.022 499.007 283.772 501.85 283.553 504.973C283.241 509.378 283.241 510.846 283.553 511.689C283.897 512.689 283.866 512.813 283.116 513.438C282.398 514.063 281.96 514.157 279.337 514.157H276.401V512.001C276.401 510.783 276.276 509.721 276.088 509.627C275.901 509.503 275.776 510.315 275.776 511.783V514.157H274.339H272.902L273.183 509.721C273.308 507.254 273.433 504.005 273.433 502.475C273.433 500.069 273.371 499.663 272.808 499.289C272.246 498.945 271.871 499.07 269.404 500.444C267.873 501.288 266.53 501.975 266.374 501.975C266.218 501.975 266.093 501.631 266.093 501.194C266.093 500.257 265.812 500.226 264.219 501.038C263.282 501.506 262.969 501.85 262.969 502.443C262.969 503.349 261.72 504.38 261.345 503.755C261.158 503.474 260.939 503.568 260.533 504.13C259.971 504.817 259.908 504.848 259.002 504.349C258.128 503.911 258.003 503.911 257.659 504.349C257.316 504.755 257.191 504.755 256.722 504.317C255.973 503.63 255.723 503.724 254.536 504.942C253.942 505.536 253.38 506.035 253.286 506.035C253.161 506.035 252.849 505.536 252.568 504.942C251.975 503.693 251.85 503.662 250.819 504.442L250.038 505.036L251.412 511.002L252.787 516.968H296.735C338.34 516.968 340.714 516.937 340.87 516.406C340.964 516.124 356.488 441.441 375.417 350.483C394.345 259.526 409.869 184.842 409.963 184.53C410.119 184.03 407.495 183.999 357.862 183.999H305.606L294.361 228.384C286.427 259.745 283.054 272.52 282.897 272.02C282.773 271.614 278.525 251.905 273.433 228.197C268.342 204.489 264.125 184.842 264.031 184.53C263.875 184.03 262.064 183.999 231.921 183.999H199.968L198.999 188.434C198.468 190.902 194.189 210.799 189.504 232.632C184.819 254.497 180.914 272.395 180.82 272.395C180.727 272.395 175.885 253.529 170.075 230.446C164.234 207.394 159.206 187.497 158.862 186.248L158.268 183.999H106.137C64.6249 183.999 54.0049 184.093 54.0049 184.374ZM128.876 256.403C129.969 257.558 130.844 258.589 130.844 258.714C130.844 258.87 131.125 258.964 131.469 258.964C132.281 258.964 132.249 258.839 131.156 257.183C130.656 256.434 130.219 255.528 130.219 255.153C130.219 254.497 130.25 254.497 130.844 255.059C131.187 255.372 132.499 257.152 133.717 259.026C134.936 260.869 136.06 262.4 136.216 262.4C136.341 262.4 136.466 261.962 136.466 261.463C136.466 260.932 136.56 260.526 136.716 260.526C136.997 260.557 138.34 263.618 139.621 267.085C140.152 268.553 141.027 270.708 141.62 271.926C142.651 274.144 143.432 277.768 143.963 282.921C144.244 285.608 145.118 288.637 146.055 290.199C146.586 291.105 146.68 291.136 148.71 291.136C150.366 291.136 150.897 291.261 151.053 291.605C151.147 291.886 151.022 292.261 150.772 292.479C150.085 293.042 148.336 295.415 148.336 295.759C148.336 296.29 152.646 300.725 155.114 302.725C156.863 304.161 157.737 305.192 158.893 307.16C159.737 308.566 160.923 310.533 161.548 311.502C162.86 313.501 162.891 313.626 162.235 313.626C161.861 313.626 161.798 313.938 161.954 315.406C162.048 316.406 162.173 317.374 162.235 317.593C162.298 317.78 162.142 318.124 161.892 318.311C161.579 318.592 161.454 318.592 161.454 318.342C161.454 318.155 161.267 317.999 161.048 317.999C160.58 317.999 159.893 319.279 159.893 320.185C159.893 320.497 159.737 320.872 159.58 320.966C159.049 321.278 158.331 320.497 158.331 319.654C158.331 319.217 158.206 318.998 158.019 319.092C157.862 319.186 157.706 319.498 157.706 319.779C157.706 320.435 156.769 322.372 156.426 322.372C156.269 322.372 156.144 321.747 156.144 320.966C156.144 320.185 156.051 319.56 155.926 319.56C155.77 319.56 155.27 320.279 154.739 321.153L153.802 322.715L153.552 321.841C153.427 321.372 153.396 320.31 153.521 319.467C153.677 318.249 153.614 317.999 153.208 317.999C152.958 317.999 152.49 318.467 152.209 318.998C151.928 319.56 151.553 320.216 151.365 320.435C150.803 321.153 150.585 320.029 150.959 318.28C151.303 316.562 151.084 316.093 150.272 316.843C149.241 317.78 148.648 317.53 148.648 316.187C148.648 314.969 148.586 314.906 145.837 312.314C144.806 311.346 143.775 310.752 142.557 310.346C142.307 310.283 141.964 309.877 141.776 309.44C141.62 309.034 141.245 308.597 140.933 308.503C140.62 308.378 139.808 307.66 139.121 306.879C138.434 306.098 137.341 304.911 136.716 304.255C135.529 303.037 135.248 302.287 135.841 301.912C136.341 301.6 136.216 301.256 135.373 300.819C134.904 300.569 134.592 300.132 134.592 299.726C134.592 298.32 133.842 298.133 131.219 298.945C129.907 299.351 127.97 299.851 126.971 300.07C125.128 300.476 125.097 300.444 123.753 299.539C123.035 299.008 122.41 298.414 122.41 298.164C122.41 297.914 121.973 297.508 121.473 297.227L120.536 296.727L121.005 295.572C121.286 294.947 121.629 294.291 121.786 294.135C121.942 293.979 123.91 293.76 126.19 293.604C128.439 293.479 130.438 293.229 130.594 293.073C131.031 292.636 130.594 290.98 129.876 290.324C129.563 290.043 129.282 289.512 129.282 289.2C129.282 288.856 129.157 288.325 128.97 288.013C128.72 287.544 128.814 287.294 129.438 286.826C130.344 286.107 129.907 285.326 128.876 285.889C128.126 286.264 127.845 285.889 127.533 284.171C127.439 283.515 127.127 282.89 126.877 282.796C126.502 282.64 126.44 282.297 126.596 281.235C126.69 280.423 126.658 279.892 126.471 279.892C126.283 279.892 126.221 279.548 126.346 279.142C126.44 278.736 126.283 277.892 126.034 277.236C125.565 276.174 125.565 275.987 126.002 275.519C126.283 275.237 126.408 274.769 126.315 274.519C126.19 274.238 126.44 273.926 126.939 273.644C127.939 273.113 127.939 272.707 126.908 272.707C126.19 272.707 126.127 272.614 126.283 271.958C126.408 271.489 126.283 271.083 126.002 270.833C125.721 270.615 125.596 270.177 125.721 269.771C125.971 268.74 125.346 267.397 123.878 265.867L122.566 264.492L123.597 264.68C124.159 264.805 124.597 264.742 124.597 264.586C124.597 264.399 124.441 264.274 124.222 264.274C124.035 264.274 123.972 264.18 124.066 264.055C124.191 263.961 123.566 263.399 122.723 262.806C120.099 261.057 121.067 260.494 124.097 261.994C126.221 263.024 126.752 262.681 125.065 261.338C124.409 260.807 123.285 259.838 122.566 259.214C121.442 258.152 121.38 258.027 122.035 258.027C122.785 258.027 124.784 258.933 126.221 259.932C127.564 260.9 127.096 259.87 125.253 257.839C124.316 256.84 123.753 255.965 123.941 255.903C124.347 255.778 126.252 256.996 127.564 258.183C128.189 258.808 128.376 258.839 128.689 258.464C129.032 258.058 128.751 257.871 127.97 257.996C127.814 257.996 127.72 257.808 127.72 257.558C127.72 257.308 127.189 256.371 126.565 255.497C125.471 253.966 125.44 253.904 126.19 254.091C126.596 254.216 127.814 255.247 128.876 256.403ZM304.45 274.894L304.731 276.612L305.606 274.644C306.105 273.582 306.605 272.707 306.699 272.707C306.824 272.707 306.855 273.52 306.793 274.488C306.668 276.299 306.668 276.299 307.23 275.55C308.854 273.332 308.792 273.27 308.823 276.362C308.823 277.924 308.979 279.485 309.166 279.798C309.323 280.141 309.572 282.234 309.666 284.452C309.791 286.67 310.01 288.7 310.135 288.95C310.822 290.324 311.54 296.165 311.447 299.882C311.415 300.85 311.041 303.037 310.603 304.724C310.166 306.442 309.822 308.003 309.822 308.222C309.822 308.909 312.04 310.096 315.57 311.314C318.568 312.345 319.006 312.595 319.349 313.438C319.786 314.438 319.661 315.187 319.068 315.187C318.881 315.187 318.568 315.5 318.412 315.875C318.162 316.437 317.725 316.656 316.538 316.812C315.07 317.062 314.789 316.968 311.54 315.375C309.666 314.438 307.886 313.657 307.636 313.626C306.761 313.501 306.386 313.626 306.386 314.032C306.386 314.25 305.824 315.031 305.106 315.75C303.607 317.343 298.359 320.029 296.204 320.373C294.704 320.591 293.58 320.997 289.988 322.684C288.957 323.184 287.739 323.683 287.27 323.777C286.802 323.902 286.271 324.183 286.052 324.433C285.865 324.683 285.428 324.87 285.146 324.87C284.834 324.87 284.116 325.245 283.553 325.714C282.679 326.463 282.554 326.495 282.741 325.964C283.428 323.715 283.428 323.808 282.523 324.058C281.867 324.214 281.679 324.152 281.773 323.871C281.867 323.621 281.492 323.34 280.805 323.121L279.68 322.809L280.711 322.278C281.711 321.716 282.148 320.904 281.211 321.247C280.93 321.341 281.648 320.404 282.835 319.186C283.991 317.936 285.428 316.249 285.99 315.437C286.833 314.282 287.552 313.719 289.145 313.001C293.642 310.939 294.049 310.69 294.142 309.846C294.298 308.597 292.237 306.973 290.863 307.191C289.301 307.41 289.519 306.442 291.237 305.536C292.299 304.973 293.205 304.786 294.829 304.755C296.048 304.724 297.172 304.536 297.391 304.318C297.953 303.755 298.078 300.725 297.672 297.758C297.078 293.354 297.203 291.355 298.265 287.232C298.89 284.92 299.327 282.328 299.421 280.423C299.577 278.049 299.702 277.455 299.983 277.705C300.202 277.892 300.483 278.423 300.608 278.892C300.795 279.642 300.827 279.673 301.139 279.142C301.326 278.829 301.545 277.58 301.67 276.331L301.889 274.113L302.326 275.425C302.545 276.143 302.826 276.674 302.951 276.612C303.076 276.518 303.263 275.737 303.388 274.831C303.763 272.02 304.013 272.02 304.45 274.894Z" fill="#008000"/>
<path d="M131.843 259.777C132.155 260.089 132.468 260.246 132.593 260.152C132.686 260.027 132.436 259.777 132.03 259.59C131.343 259.215 131.343 259.215 131.843 259.777Z" fill="black"/>
<path d="M126.627 262.713C126.721 262.869 126.877 263.026 126.971 263.026C127.033 263.026 127.096 262.869 127.096 262.713C127.096 262.526 126.939 262.401 126.752 262.401C126.596 262.401 126.533 262.526 126.627 262.713Z" fill="black"/>
<path d="M159.986 317.219C159.986 317.469 160.205 317.688 160.455 317.688C160.674 317.688 160.83 317.531 160.767 317.313C160.58 316.75 159.986 316.657 159.986 317.219Z" fill="black"/>
<path d="M422.27 350.641V516.969H474.901H527.533V481.205V445.44L526.845 445.315C526.439 445.221 525.471 445.096 524.659 445.003C523.847 444.909 522.316 444.472 521.223 444.003C515.819 441.786 513.258 441.067 510.416 441.067C508.916 441.067 506.792 440.911 505.699 440.755C502.732 440.349 503.356 439.88 492.205 450.844C487.614 455.342 482.554 460.277 480.93 461.839C478.368 464.244 477.775 465.025 476.681 467.305C475.994 468.773 475.307 470.522 475.182 471.209C475.057 471.896 474.839 472.615 474.682 472.833C474.183 473.489 474.589 482.204 475.338 485.734C476.4 490.919 476.9 494.042 477.4 498.072C477.806 501.258 478.056 502.163 479.055 504.163C480.274 506.661 482.054 508.66 483.772 509.566C484.397 509.879 484.709 510.222 484.553 510.41C484.397 510.535 483.21 510.847 481.898 511.066C479.899 511.378 479.243 511.378 477.837 511.003C476.15 510.566 475.776 510.191 474.37 507.63C473.902 506.786 473.683 506.661 472.465 506.661C470.091 506.661 470.153 506.849 469.591 497.853C469.31 493.449 468.966 489.17 468.81 488.326C468.373 485.921 467.561 482.298 467.248 481.517C467.092 481.111 466.811 479.33 466.624 477.581C466.249 474.145 464.562 468.211 463.906 467.992C463.5 467.867 461.001 472.646 461.001 473.552C461.001 473.833 460.876 474.177 460.689 474.364C460.533 474.52 460.158 476.019 459.908 477.612C459.502 480.299 459.19 482.704 458.221 491.356C458.034 492.824 457.815 495.698 457.69 497.79L457.472 501.57L458.69 504.006C459.408 505.443 460.47 507.005 461.282 507.786C462.813 509.254 462.875 509.191 459.689 509.754C457.159 510.191 456.347 509.847 454.723 507.505C453.161 505.256 452.88 505.006 452.349 505.474C451.693 506.005 450.381 505.474 450.038 504.537C449.632 503.6 449.913 495.198 450.381 492.293C450.569 491.356 450.85 489.669 451.006 488.545C451.318 486.733 451.974 472.677 452.037 467.305C452.037 466.18 451.787 464.462 451.506 463.432C450.631 460.527 450.787 460.183 455.566 455.279C459.252 451.531 462.751 447.689 464.437 445.565C466.53 442.972 467.873 439.131 468.092 435.289C468.248 432.165 468.154 431.665 465.937 425.449L464.562 421.545L462.594 421.639L460.595 421.701L461.657 420.983C463.406 419.827 463.188 418.172 460.814 414.986C457.003 409.801 456.472 401.18 459.846 399.555C460.345 399.337 462.313 399.024 464.219 398.837C467.28 398.587 468.029 398.4 470.934 397.119C474.964 395.37 478.556 393.215 479.274 392.153C479.961 391.059 483.709 389.373 486.646 388.779C492.174 387.655 496.953 387.592 502.451 388.561C506.105 389.216 515.976 389.935 521.598 389.966L527.376 389.997L527.47 385.593L527.564 381.189L526.158 381.002C524.378 380.752 519.162 378.596 518.943 378.003C518.818 377.659 519.005 377.628 519.786 377.753C520.349 377.847 522.16 378.159 523.784 378.44C525.409 378.721 526.908 379.002 527.064 379.002C527.252 379.034 527.408 375.067 527.47 367.758L527.533 356.482L526.689 356.294C526.19 356.201 525.159 356.045 524.378 355.92C521.098 355.482 521.692 354.545 525.284 354.545H527.533V269.429V184.313H474.901H422.27V350.641Z" fill="#008000"/>
<path d="M549.147 268.086L549.241 351.859L550.553 352.859C551.271 353.39 552.801 354.17 553.957 354.514C555.082 354.889 557.393 355.888 559.049 356.7C560.704 357.513 562.984 358.418 564.109 358.7C569.075 359.949 575.197 360.542 576.197 359.886C576.728 359.574 575.447 358.45 572.48 356.7C571.293 355.982 570.356 355.357 570.418 355.264C570.574 355.107 574.822 356.638 576.259 357.356C576.853 357.669 577.634 358.2 577.946 358.575C578.29 358.949 578.852 359.231 579.258 359.231C580.257 359.231 582.069 357.544 582.538 356.201C583.069 354.576 582.756 347.517 582.1 346.237C581.257 344.581 577.759 341.801 573.823 339.646C570.606 337.897 571.761 337.99 576.415 339.865C579.914 341.239 582.631 343.019 583.069 344.175C584.349 347.736 585.411 353.015 585.442 356.107C585.474 359.012 585.505 359.074 586.255 359.168C586.661 359.231 587.535 359.137 588.191 358.949C589.878 358.418 590.846 356.857 591.127 354.17C591.377 351.703 591.252 351.484 588.91 350.141C587.254 349.204 587.691 348.923 589.597 349.704C591.127 350.36 591.252 350.297 591.252 349.235C591.252 348.423 589.972 346.518 588.91 345.737C588.722 345.612 588.847 345.487 589.159 345.487C590.596 345.487 592.47 347.767 592.658 349.735C592.72 350.36 592.814 350.891 592.876 350.922C592.939 350.953 593.657 351.547 594.469 352.203C595.344 352.89 596.062 353.265 596.219 353.108C596.375 352.952 597.093 351.703 597.843 350.328C600.061 346.143 599.654 343.457 596.344 340.427C595.625 339.802 594.782 339.209 594.407 339.084C594.032 338.99 593.751 338.771 593.751 338.615C593.751 338.147 595.625 338.646 597.53 339.583C599.717 340.677 600.435 341.801 600.966 344.987C601.529 348.548 601.247 350.516 599.748 353.296C598.53 355.576 596.999 360.48 597.312 361.261C597.374 361.448 598.093 361.823 598.874 362.042L600.279 362.417L603.34 360.324C605.027 359.168 607.276 357.356 608.338 356.326C609.4 355.264 610.337 354.483 610.431 354.576C610.493 354.639 609.931 356.169 609.181 357.981C607.526 361.979 607.463 362.666 608.682 362.666C609.181 362.666 610.399 362.948 611.43 363.322C614.679 364.478 617.521 364.291 625.923 362.354C628.079 361.886 630.328 361.386 630.921 361.292C631.515 361.167 632.577 360.824 633.264 360.48C634.419 359.949 634.638 359.918 636.2 360.324C638.605 360.98 638.824 361.23 638.636 363.197C638.48 364.759 638.511 364.853 639.198 365.04C640.354 365.321 640.823 367.039 640.167 368.726C639.448 370.569 638.324 371.568 635.794 372.506C632.545 373.724 632.139 374.005 628.016 377.534C625.923 379.346 623.55 381.158 622.737 381.595C621.55 382.188 621.207 382.563 620.957 383.5C620.77 384.156 620.613 384.906 620.613 385.156C620.613 385.406 619.708 386.53 618.583 387.623C617.459 388.685 616.553 389.81 616.553 390.06C616.553 390.31 615.897 391.122 615.116 391.84C613.461 393.308 613.429 394.027 614.991 394.933C616.397 395.776 618.208 397.588 617.958 397.962C617.865 398.119 618.208 398.806 618.739 399.462L619.708 400.617L618.895 400.711C617.958 400.836 617.958 400.898 618.739 402.023L619.364 402.929L618.364 403.022C617.459 403.116 617.334 403.241 617.24 404.116C617.178 404.647 616.928 405.271 616.678 405.459C616.428 405.677 616.24 406.084 616.24 406.396C616.24 406.677 615.959 407.177 615.616 407.489C615.272 407.801 614.991 408.27 614.991 408.551C614.991 408.832 614.71 409.238 614.366 409.457C614.023 409.676 613.742 410.019 613.742 410.238C613.742 410.456 613.461 410.863 613.117 411.175C612.773 411.456 612.492 411.987 612.492 412.331C612.492 412.674 612.367 412.955 612.242 412.955C611.711 412.955 609.369 415.517 609.369 416.079C609.369 416.422 609.119 416.828 608.775 416.985C608.463 417.172 608.119 417.641 607.994 418.078C607.744 419.077 607.432 419.14 604.496 418.796C601.123 418.359 599.998 418.89 598.499 421.576C597.499 423.357 596.281 425.262 595.313 426.511C594.875 427.105 593.407 428.729 589.878 432.477C589.066 433.321 587.816 435.007 587.035 436.226C585.817 438.162 585.599 438.818 585.005 442.16C583.787 449.095 583.881 454.405 585.317 462.557C585.63 464.462 585.724 466.649 585.63 472.771C585.567 476.925 585.63 477.3 586.567 480.08C587.098 481.673 587.691 483.828 587.848 484.859C588.004 485.89 588.285 486.952 588.41 487.233C588.566 487.514 589.097 488.888 589.534 490.263C590.003 491.637 590.565 493.168 590.784 493.699C591.002 494.198 591.502 495.479 591.877 496.51C592.408 497.822 593.282 499.134 594.813 500.82C596.031 502.163 597.124 503.444 597.249 503.694C597.78 504.6 590.253 504.694 589.159 503.788C588.91 503.6 588.441 502.882 588.097 502.226C587.317 500.664 586.723 500.477 585.786 501.351C585.349 501.757 584.943 502.038 584.88 501.945C584.599 501.632 584.068 498.353 584.068 496.885C584.068 495.448 583.818 493.636 582.538 485.734C582.163 483.453 581.382 480.299 580.945 479.33C580.788 478.987 580.507 477.862 580.32 476.832C579.883 474.52 579.726 473.989 578.133 469.398C577.415 467.367 576.728 465.056 576.572 464.244C576.29 462.682 575.51 459.402 575.01 457.622C574.354 455.248 573.386 451.125 572.98 449.032C572.074 444.284 571.293 442.441 570.012 442.067C568.763 441.723 563.359 441.817 562.672 442.223C562.078 442.566 562.047 442.848 562.172 448.314C562.266 454.092 562.641 456.591 564.265 462.619C564.858 464.837 564.921 467.68 564.546 474.489C564.39 477.238 564.421 480.049 564.671 482.61C565.733 493.511 565.702 493.355 568.232 497.697C572.136 504.319 572.136 504.319 567.451 504.319H564.234L563.703 503.257C562.922 501.695 562.703 501.57 561.828 502.288C561.36 502.632 560.86 502.913 560.673 502.913C560.235 502.913 560.235 494.355 560.642 492.293C560.985 490.669 560.235 480.455 559.517 476.675C559.111 474.458 557.768 469.741 557.206 468.398C557.049 468.054 556.768 467.149 556.581 466.368C556.394 465.587 556.112 464.619 555.987 464.181C555.831 463.744 555.332 461.995 554.863 460.277C554.394 458.559 553.895 456.872 553.739 456.529C553.614 456.185 553.239 455.061 552.958 454.03C550.74 445.877 550.459 445.034 549.553 444.69C549.147 444.534 549.084 448.376 549.084 480.736V516.969H640.448H731.811V483.391V449.813H693.079H654.348V317.063V184.313H601.716H549.084L549.147 268.086Z" fill="#008000"/>
<path d="M735.56 350.641V517L801.248 516.875C871.684 516.782 868.779 516.844 879.867 515.22C902.138 512.003 921.129 505.006 938.121 493.699C951.053 485.078 959.924 475.582 965.14 464.744C968.013 458.778 969.419 453.905 970.106 447.564C970.575 443.316 970.575 257.966 970.106 253.718C969.419 247.377 968.013 242.504 965.14 236.538C959.924 225.668 951.146 216.266 938.121 207.614C921.192 196.307 902.169 189.279 879.867 186.062C868.779 184.438 871.684 184.5 801.248 184.406L735.56 184.281V350.641ZM795.22 239.037C797.593 239.443 798.187 239.849 796.157 239.662C795.469 239.599 794.907 239.599 794.907 239.693C794.907 239.818 795.313 240.474 795.813 241.223C797.25 243.379 798.312 245.909 799.155 249.188C799.905 252.062 799.967 252.843 800.124 261.932C800.28 271.678 799.999 278.768 799.124 286.608C798.531 291.981 797.5 298.197 794.158 316.75C793.908 318.219 793.47 320.592 793.221 322.06C792.971 323.529 792.533 325.902 792.252 327.37C791.471 331.494 790.753 335.585 790.722 336.273C790.69 336.741 790.909 336.928 791.627 336.991L792.565 337.085L794.845 330.432C796.094 326.777 798.624 319.281 800.436 313.783C802.248 308.286 803.841 303.507 803.997 303.163C804.122 302.82 804.528 301.539 804.871 300.352C805.215 299.134 805.902 296.76 806.433 295.042C807.807 290.357 808.245 288.732 808.776 285.984C810.931 274.989 811.337 260.308 809.619 253.811C807.62 246.19 804.59 241.879 800.217 240.349C798.999 239.943 798.499 239.63 798.937 239.63C799.811 239.599 806.089 241.067 806.839 241.505C807.151 241.661 807.558 241.786 807.776 241.786C808.62 241.786 813.18 244.003 815.304 245.409C819.958 248.532 826.299 255.592 829.047 260.745C830.734 263.9 832.077 269.148 832.077 272.49C832.077 274.708 831.359 280.517 830.64 283.953C830.016 287.014 828.329 293.074 827.985 293.449C827.829 293.636 827.704 293.949 827.704 294.199C827.704 296.666 816.553 315.001 810.275 322.841C810.15 322.998 808.838 324.684 807.401 326.59C805.965 328.464 803.31 331.837 801.529 334.086C796 341.02 795.532 341.832 795.126 345.018C794.751 347.736 794.72 347.767 793.627 348.361C793.002 348.673 791.877 349.048 791.128 349.173C789.41 349.485 789.035 350.391 790.565 350.547C791.94 350.672 792.127 351.453 792.19 356.825L792.252 361.167L790.69 361.761C789.472 362.229 788.941 362.292 788.223 362.042C787.723 361.886 786.973 361.729 786.599 361.729C786.193 361.729 785.849 361.542 785.849 361.323C785.849 361.136 785.818 358.637 785.786 355.795L785.693 350.641L786.411 350.547C786.942 350.453 787.098 350.266 787.036 349.766C786.973 349.235 786.599 349.048 785.099 348.735C783.163 348.361 782.725 347.986 782.725 346.705C782.725 345.112 781.726 343.082 779.727 340.645C778.602 339.271 777.103 337.428 776.416 336.585C774.604 334.336 772.48 331.868 770.7 329.869C765.64 324.278 756.644 312.627 752.084 305.818C746.055 296.729 742.119 285.265 742.119 276.707C742.119 274.333 743.088 267.242 743.681 265.056C745.024 260.277 746.961 256.872 750.303 253.405C753.239 250.375 758.174 246.159 758.768 246.159C758.862 246.159 759.83 245.628 760.892 244.94C765.202 242.348 772.324 240.13 778.946 239.318C780.383 239.131 781.632 238.912 781.726 238.818C782.069 238.506 793.096 238.662 795.22 239.037ZM856.597 251.781C861.064 252.437 863.438 253.78 864.593 256.31C865.156 257.497 865.187 261.276 865.187 350.578C865.187 450.531 865.28 444.722 863.75 446.44C863.031 447.189 863.469 447.627 864.937 447.627C866.249 447.627 867.373 446.971 867.373 446.19C867.373 445.409 868.841 445.346 869.872 446.065C870.372 446.44 870.809 446.877 870.809 447.033C870.809 447.47 869.997 447.377 869.56 446.846C869.216 446.44 869.091 446.471 868.435 447.096C867.873 447.627 867.686 448.126 867.686 449.282C867.686 450.313 867.842 450.813 868.154 450.937C868.404 451.062 868.623 451.312 868.623 451.531C868.623 451.75 868.404 451.999 868.154 452.124C867.373 452.406 867.561 454.061 868.466 454.748C869.404 455.498 869.466 455.748 868.654 455.529C867.935 455.342 867.467 455.998 868.123 456.248C868.404 456.341 868.623 456.779 868.623 457.153C868.623 457.559 868.779 457.997 868.935 458.09C869.122 458.184 869.247 458.621 869.247 459.027C869.247 459.402 869.466 459.808 869.716 459.933C869.966 460.027 870.184 460.308 870.184 460.589C870.184 460.839 870.341 461.058 870.497 461.058C870.684 461.058 870.809 461.276 870.809 461.526C870.809 461.87 870.434 461.995 869.404 461.995C868.623 461.995 867.998 461.87 867.998 461.745C867.998 461.589 867.654 461.276 867.217 461.058C866.811 460.839 866.53 460.558 866.592 460.433C866.686 460.308 866.53 460.027 866.28 459.808C866.03 459.59 865.811 459.215 865.811 458.996C865.811 458.746 865.686 458.559 865.53 458.559C865.374 458.559 865.187 458.278 865.093 457.934C864.968 457.434 864.656 457.31 863.531 457.31C862.75 457.31 862.001 457.185 861.907 456.997C861.813 456.841 861.438 456.685 861.095 456.685C860.783 456.685 860.501 456.529 860.501 456.372C860.501 456.185 860.283 456.06 860.033 456.06C859.783 456.06 859.564 456.279 859.564 456.529C859.564 456.779 859.721 456.997 859.877 456.997C860.064 456.997 860.189 458.59 860.189 461.183C860.189 464.494 860.283 465.431 860.658 465.743C860.907 465.962 861.126 466.305 861.157 466.493C861.157 466.961 864.281 469.179 864.937 469.179C865.249 469.179 865.499 469.304 865.499 469.429C865.499 469.585 865.843 469.897 866.28 470.116C866.749 470.366 867.061 470.803 867.061 471.24C867.061 471.647 867.186 472.021 867.342 472.115C867.498 472.209 867.686 472.865 867.748 473.583C867.842 474.52 867.748 474.926 867.342 475.114C866.749 475.457 865.187 474.833 865.187 474.302C865.187 474.114 864.843 473.802 864.437 473.552C864.031 473.333 863.594 472.896 863.531 472.584C863.438 472.24 863.094 471.99 862.75 471.99C862.376 471.99 862.001 471.834 861.907 471.678C861.813 471.49 861.501 471.365 861.251 471.365C860.595 471.365 858.94 470.085 858.94 469.585C858.94 469.366 858.815 469.179 858.627 469.179C858.471 469.179 858.315 468.773 858.315 468.273C858.315 467.773 858.128 467.305 857.94 467.242C857.69 467.149 857.565 466.68 857.628 465.993C857.69 465.306 857.565 464.775 857.253 464.525C856.972 464.275 856.753 463.9 856.753 463.682C856.753 463.432 856.628 463.244 856.441 463.244C856.285 463.244 856.128 463.026 856.128 462.776C856.128 462.495 855.91 462.213 855.66 462.12C855.41 461.995 855.191 461.745 855.191 461.526C855.191 461.276 854.848 460.839 854.411 460.496C854.004 460.152 853.723 459.808 853.817 459.746C853.88 459.652 853.755 459.402 853.473 459.184C853.224 458.965 853.005 458.59 853.005 458.372C853.005 458.122 852.88 457.934 852.693 457.934C852.536 457.934 852.38 457.716 852.38 457.466C852.38 457.185 852.162 456.903 851.912 456.81C851.318 456.56 851.287 454.998 851.88 454.53C852.193 454.248 853.005 454.217 854.567 454.373C857.034 454.592 858.315 454.217 858.315 453.186C858.315 452.468 859.033 451.687 859.627 451.687C860.189 451.718 860.97 452.343 861.22 453.03C861.438 453.655 862.063 453.468 862.063 452.78C862.063 452.562 862.282 452.281 862.563 452.187C862.813 452.093 862.969 451.875 862.875 451.718C862.75 451.562 863.031 451.156 863.469 450.813C863.937 450.438 864.25 449.875 864.25 449.407C864.25 448.657 864.125 448.595 862.782 448.501C861.938 448.439 860.751 448.564 860.127 448.782C857.846 449.501 854.129 449.813 847.508 449.813H840.823V448.095C840.823 446.283 840.386 445.846 839.886 447.127C839.449 448.345 838.199 448.97 836.763 448.782C835.232 448.595 834.982 448.907 835.701 450.125C836.169 450.906 836.2 451.219 835.888 452.062C835.701 452.624 835.451 453.717 835.326 454.498C835.076 455.998 833.983 457.997 833.483 457.841C833.327 457.778 833.046 457.278 832.858 456.747C832.483 455.498 832.14 455.498 830.453 456.779C829.703 457.341 828.267 458.309 827.236 458.934C824.924 460.339 823.331 461.87 823.331 462.651C823.331 463.275 822.332 464.181 821.676 464.181C821.332 464.181 820.614 463.9 820.052 463.557C819.427 463.182 818.178 462.838 816.959 462.713C814.992 462.526 814.898 462.557 814.898 463.213C814.898 463.775 814.71 463.869 813.43 463.869C812.461 463.869 811.556 463.619 810.619 463.088C809.275 462.276 808.744 461.558 807.526 458.746C807.183 457.934 806.339 456.56 805.683 455.748C805.027 454.904 804.34 453.78 804.153 453.218C803.653 451.687 801.966 450.656 800.373 450.875L799.124 451.062L797.25 448.532C795.095 445.627 794.189 444.815 793.377 445.034C793.033 445.128 792.627 444.94 792.377 444.597C791.627 443.535 791.253 443.535 788.441 444.503C785.412 445.534 784.193 445.627 783.038 444.972C782.6 444.722 782.069 444.534 781.882 444.503C781.32 444.503 780.227 446.814 780.227 448.033C780.227 449.469 780.945 451.75 781.757 452.905C782.132 453.436 782.663 454.561 782.913 455.404C783.444 457.216 784.475 458.215 787.317 459.558C788.41 460.058 789.285 460.62 789.285 460.777C789.285 460.933 790.69 462.463 792.408 464.181C794.126 465.868 795.532 467.399 795.532 467.586C795.532 468.179 794.751 467.961 793.658 466.992C793.064 466.493 792.44 466.087 792.315 466.055C792.19 466.055 789.503 464.431 786.349 462.463C783.194 460.496 780.445 458.871 780.258 458.871C779.602 458.871 779.914 461.245 780.789 462.963C782.132 465.587 783.038 466.618 785.099 467.93C788.535 470.085 790.034 472.209 789.503 474.145C789.285 474.989 789.503 475.176 792.034 476.675C794.876 478.362 795.751 479.174 796 480.33C796.125 480.798 796.344 481.486 796.531 481.86C796.688 482.235 796.781 482.922 796.719 483.422C796.563 484.984 797.531 484.734 798.624 482.922C799.155 482.048 799.593 481.173 799.593 480.955C799.624 480.392 800.53 479.393 801.779 478.55C803.122 477.612 805.746 475.488 808.12 473.333C809.119 472.427 810.15 471.678 810.4 471.678C810.65 471.678 811.524 471.022 812.368 470.178C813.461 469.054 813.992 468.242 814.461 466.774C814.773 465.681 815.21 464.806 815.366 464.806C815.554 464.806 816.116 465.712 816.616 466.836C817.147 467.93 817.647 468.867 817.803 468.867C817.928 468.867 818.021 469.054 818.021 469.304C818.021 469.523 819.333 471.053 820.957 472.677C824.081 475.832 823.987 475.77 829.703 477.363C831.328 477.8 832.702 478.924 833.514 480.486C834.233 481.86 835.357 482.766 838.012 484.047C849.569 489.669 850.881 490.513 853.505 494.074C856.441 498.04 860.22 501.32 865.343 504.319C869.154 506.568 869.841 507.13 869.341 507.63C869.029 507.942 868.623 507.942 867.311 507.598C866.405 507.38 865.437 507.099 865.187 506.974C863.313 506.068 862.376 506.005 860.252 506.63C859.096 506.974 857.472 507.411 856.597 507.63C855.754 507.848 854.192 508.598 853.161 509.316C851.974 510.128 850.6 510.753 849.413 511.003C848.382 511.222 846.289 511.69 844.728 512.034C839.886 513.096 836.606 513.939 836.232 514.252C835.95 514.439 835.763 514.376 835.638 514.002C835.326 513.19 835.732 510.222 836.294 509.379C836.856 508.504 839.012 506.974 839.667 506.974C840.386 506.974 841.011 505.974 841.916 503.413C842.666 501.289 842.729 500.82 842.416 499.821C842.229 499.196 841.854 496.947 841.604 494.792C841.011 489.919 840.979 489.794 839.98 489.794C839.168 489.794 838.699 490.232 834.92 494.448C833.264 496.291 832.483 496.885 830.328 497.915C828.891 498.603 827.329 499.227 826.861 499.352C824.393 499.946 823.581 500.727 821.957 504.069C821.738 504.537 821.332 504.787 820.833 504.787C819.989 504.787 819.646 504.006 819.115 501.039C818.927 500.039 816.522 493.355 815.772 491.762C815.585 491.387 815.554 490.7 815.647 490.2C816.491 486.858 816.085 484.828 814.117 482.922C812.899 481.736 812.649 481.611 811.681 481.798C809.931 482.11 809.4 483.079 808.651 487.295C808.432 488.42 808.057 489.732 807.807 490.263C806.87 492.043 806.777 492.293 806.777 492.824C806.777 493.636 804.059 496.604 802.685 497.322C802.029 497.634 801.154 497.915 800.779 497.915C800.373 497.915 799.436 498.415 798.655 499.009C797.875 499.602 796.25 500.789 795.063 501.632C793.845 502.476 792.315 503.819 791.659 504.631C789.379 507.411 788.566 507.786 787.286 506.818C786.692 506.38 786.692 506.349 787.473 505.662C787.91 505.256 788.848 504.069 789.535 503.007C790.253 501.945 791.627 500.414 792.627 499.571C796.719 496.104 798 494.698 798.218 493.386C798.312 492.699 798.531 491.887 798.718 491.575C799.155 490.763 798.218 490.544 797.406 491.294C796.75 491.918 793.033 493.23 791.971 493.23C791.19 493.23 791.378 492.887 793.221 490.981C794.657 489.482 795.844 487.733 795.844 487.077C795.844 486.952 794.532 486.827 792.939 486.827C791.378 486.796 788.972 486.608 787.629 486.39L785.224 485.952L782.319 487.389C780.758 488.17 778.977 489.17 778.384 489.607C777.79 490.044 777.134 490.419 776.947 490.419C775.916 490.419 771.699 488.201 770.294 486.921C766.015 483.079 763.047 482.11 758.518 483.079C754.739 483.86 754.083 484.141 751.74 485.89C750.491 486.827 748.96 487.951 748.367 488.389C746.711 489.638 739.527 493.855 739.09 493.855C738.496 493.855 738.59 492.824 739.246 492.106C740.12 491.137 740.745 490.075 743.181 485.359C744.462 482.891 745.93 480.111 746.461 479.174C746.961 478.237 747.648 476.957 747.929 476.363C749.429 473.364 752.646 468.71 754.988 466.212C756.425 464.65 758.424 462.401 759.455 461.214C763.672 456.31 764.89 455.56 766.92 456.529C768.826 457.434 770.918 456.654 773.074 454.248C774.448 452.718 776.166 449.657 776.166 448.72C776.166 448.439 776.447 447.627 776.759 446.908C777.103 446.158 777.478 445.159 777.603 444.659C777.946 443.285 778.571 442.972 780.914 442.941C782.069 442.941 783.819 442.723 784.818 442.473C787.255 441.817 793.064 438.818 795.376 436.975C797.219 435.538 797.906 434.82 799.999 432.165C800.53 431.478 802.279 429.604 803.872 428.011C806.558 425.356 806.87 425.137 808.026 425.137C809.244 425.137 812.087 426.262 812.087 426.761C812.087 426.886 812.243 427.011 812.43 427.011C812.618 427.011 813.68 427.761 814.773 428.698C815.897 429.604 817.178 430.541 817.647 430.791C818.99 431.447 821.207 432.977 822.238 433.883C823.55 435.039 826.861 436.382 828.454 436.382C829.204 436.382 830.328 436.6 830.922 436.85C832.64 437.569 835.326 437.413 838.168 436.444L840.667 435.601L840.761 343.519L840.823 251.469H847.632C851.349 251.469 855.41 251.625 856.597 251.781ZM873.683 448.938C874.557 449.657 875.557 450.75 875.963 451.344C876.869 452.749 879.649 455.654 881.179 456.81C882.21 457.591 882.522 457.653 884.646 457.591C886.958 457.497 886.958 457.497 888.488 458.778C889.332 459.496 891.424 461.526 893.174 463.307C894.892 465.056 897.703 467.773 899.389 469.335C901.076 470.866 902.794 472.459 903.2 472.833C903.606 473.208 903.919 473.895 903.919 474.333C903.919 474.77 904.012 475.114 904.168 475.114C904.293 475.114 904.668 475.613 904.981 476.207C905.324 476.832 906.355 477.8 907.511 478.55C909.728 479.986 910.291 480.58 910.634 481.673C910.759 482.11 911.353 483.016 911.915 483.672C913.102 485.046 913.227 485.421 912.446 485.421C911.852 485.421 910.478 484.234 910.478 483.703C910.478 482.985 908.604 480.736 907.292 479.893C906.542 479.393 905.761 478.862 905.543 478.643C905.324 478.425 904.887 478.112 904.606 477.925C904.137 477.675 904.137 477.581 904.543 477.3C904.918 477.019 904.856 476.988 904.262 477.144C903.544 477.363 903.512 477.3 903.7 476.269C903.856 475.332 903.762 475.114 903.263 474.957C902.95 474.833 902.669 474.583 902.669 474.364C902.669 474.114 902.138 473.552 901.513 473.052C900.857 472.584 897.578 469.429 894.236 466.118C888.145 460.058 886.114 458.372 885.302 458.684C885.084 458.778 884.803 458.715 884.678 458.528C884.584 458.34 883.99 458.278 883.272 458.403C881.866 458.653 880.305 458.09 880.086 457.247C879.992 456.935 879.649 456.685 879.305 456.685C878.899 456.685 878.024 455.873 876.838 454.436C875.838 453.186 874.151 451.312 873.089 450.25C871.996 449.188 871.121 448.189 871.121 447.97C871.121 447.283 872.152 447.658 873.683 448.938ZM840.198 459.558C840.573 460.308 840.979 460.964 841.104 461.058C841.385 461.245 842.385 463.4 842.385 463.775C842.385 464.15 844.259 466.368 844.603 466.368C844.946 466.368 845.915 467.117 847.414 468.585C848.913 469.991 849.881 470.428 851.662 470.428C852.849 470.428 853.38 470.647 854.91 471.803C855.91 472.552 857.409 473.489 858.221 473.864C860.439 474.864 860.595 474.957 860.939 475.551C862.188 477.612 864.406 479.049 865.936 478.706C869.404 477.987 869.747 478.081 872.683 480.424C875.588 482.798 879.461 485.609 881.21 486.671C882.179 487.264 882.991 487.858 882.991 488.014C882.991 488.17 883.303 488.732 883.709 489.263C885.583 491.887 885.615 492.762 883.897 493.917C882.023 495.229 881.679 495.104 881.741 493.136C881.804 492.262 881.804 491.325 881.773 491.106C881.741 490.669 878.555 488.545 877.931 488.545C877.712 488.545 877.181 488.264 876.744 487.92C876.307 487.577 875.744 487.295 875.494 487.295C874.932 487.264 873.308 485.89 873.308 485.453C873.308 485.296 872.871 484.734 872.34 484.203C871.465 483.329 871.215 483.235 869.341 483.235C867.842 483.235 867.092 483.391 866.686 483.766C865.999 484.391 865.968 485.203 866.592 485.734C866.936 486.015 867.061 486.577 866.998 487.545C866.811 490.481 864.843 489.857 864.437 486.733C864.343 485.89 864 484.703 863.719 484.141C862.875 482.454 860.501 480.299 858.783 479.674C857.94 479.33 856.847 478.831 856.378 478.518C855.941 478.175 855.348 477.925 855.098 477.925C854.817 477.925 854.504 477.769 854.411 477.612C854.317 477.425 853.942 477.3 853.598 477.3C853.286 477.3 853.005 477.206 853.005 477.05C853.005 476.925 851.974 476.363 850.725 475.801C849.507 475.207 848.226 474.614 847.945 474.458C847.101 474.02 846.883 474.083 845.727 475.176C844.54 476.301 844.072 477.987 844.79 478.581C845.009 478.768 845.196 479.205 845.196 479.487C845.196 479.799 845.54 480.33 845.977 480.674C846.664 481.236 846.727 481.454 846.57 482.735C846.352 484.266 845.696 484.672 845.321 483.485C845.071 482.704 843.041 480.736 842.447 480.736C842.229 480.736 841.823 480.611 841.51 480.455C841.229 480.299 840.323 479.893 839.511 479.58C837.575 478.862 837.45 477.956 839.168 477.144L840.323 476.582L839.48 475.988C838.699 475.426 838.637 475.207 838.637 473.208C838.637 471.553 838.73 471.053 839.074 471.053C839.324 471.053 839.636 471.209 839.73 471.397C839.855 471.553 840.167 471.678 840.417 471.615C841.073 471.49 841.229 469.897 840.636 469.679C840.386 469.585 840.198 469.304 840.198 469.023C840.198 468.773 840.074 468.554 839.917 468.554C839.761 468.554 839.574 468.273 839.48 467.93C839.386 467.492 839.043 467.305 838.512 467.305C837.825 467.305 837.7 467.43 837.7 468.242C837.7 469.179 836.825 471.365 836.419 471.365C836.294 471.365 835.919 470.866 835.544 470.272C835.201 469.679 834.701 469.179 834.42 469.179C834.076 469.179 833.951 469.491 833.951 470.272C833.951 471.147 833.826 471.365 833.358 471.365C833.014 471.365 832.64 471.49 832.546 471.678C832.265 472.115 830.516 472.053 830.484 471.584C830.266 468.679 830.297 468.429 831.453 467.149C832.077 466.461 832.983 465.337 833.483 464.65C833.983 463.963 834.857 462.932 835.419 462.37C835.982 461.807 836.45 461.214 836.45 461.058C836.45 460.62 838.699 458.247 839.136 458.247C839.324 458.247 839.824 458.84 840.198 459.558Z" fill="#008000"/>
<path d="M783.568 240.286C782.35 242.129 781.632 251.812 781.913 262.557C782.069 269.835 782.35 275.207 783.506 295.354C783.756 299.634 784.099 305.756 784.287 308.942C784.443 312.128 784.724 316.688 784.911 319.093C785.068 321.498 785.38 326.402 785.567 329.994C785.724 333.618 785.942 336.679 786.036 336.804C786.286 337.178 788.285 337.116 788.503 336.71C788.816 336.273 789.534 327.62 790.69 311.284C790.94 307.661 791.221 304.006 791.315 303.163C791.408 302.289 791.627 299.009 791.783 295.823C791.971 292.637 792.252 288.201 792.408 285.984C793.158 275.988 793.407 265.525 793.033 259.808C792.47 250.469 791.065 241.879 789.878 240.443C789.409 239.849 788.941 239.724 786.692 239.662C784.193 239.537 784.006 239.568 783.568 240.286Z" fill="#008000"/>
<path d="M774.136 241.098C771.793 241.879 770.762 242.535 769.325 244.159C766.389 247.502 764.328 253.03 763.703 259.246C762.735 268.679 763.953 282.735 766.546 291.918C768.638 299.384 769.044 300.695 770.075 303.944C771.887 309.566 777.79 327.245 778.04 327.839C778.196 328.183 778.977 330.431 779.821 332.837L781.32 337.21L782.382 337.303L783.413 337.397L783.194 335.741C783.069 334.836 782.788 333.086 782.569 331.9C782.163 329.776 781.351 325.403 780.352 319.874C780.102 318.406 779.758 316.501 779.571 315.657C779.258 313.846 778.321 308.567 777.572 304.256C777.29 302.632 776.853 300.164 776.603 298.79C775.76 293.949 775.229 290.325 774.917 287.389C773.48 274.239 773.417 255.841 774.76 250.469C775.51 247.564 776.635 244.69 777.884 242.629C778.477 241.629 778.977 240.755 778.977 240.661C778.977 240.349 775.541 240.63 774.136 241.098Z" fill="#008000"/>
<path d="M760.392 246.252C757.8 248.064 753.614 252.156 752.271 254.155C749.116 258.871 747.43 264.244 747.43 269.46C747.43 272.865 748.523 280.111 749.585 283.797C750.959 288.451 751.365 289.826 752.334 292.543C752.927 294.261 753.77 296.416 754.177 297.322C754.583 298.228 754.926 299.04 754.926 299.134C754.926 299.915 761.017 312.065 763.703 316.626C765.265 319.281 771.575 328.995 772.262 329.776C772.418 329.963 773.667 331.681 775.042 333.618C777.259 336.772 778.134 337.709 778.509 337.303C778.603 337.241 776.978 333.805 774.948 329.682C767.42 314.533 764.672 308.536 761.267 299.883C759.893 296.354 757.894 290.638 757.425 288.795C757.269 288.264 756.894 286.858 756.55 285.671C756.207 284.453 755.613 281.861 755.239 279.893C754.614 276.707 754.551 275.614 754.708 269.897C754.864 263.65 755.332 260.058 756.488 256.466C757.8 252.406 759.986 248.408 762.079 246.252C763.828 244.409 763.016 244.409 760.392 246.252Z" fill="#008000"/>
<path d="M812.086 245.19C812.086 245.346 812.398 245.877 812.804 246.377C813.554 247.283 815.428 250.375 816.084 251.781C818.208 256.404 819.239 261.807 819.489 269.272C819.614 274.02 819.551 275.238 818.958 278.487C817.615 285.952 814.179 296.51 810.212 305.349C810.056 305.693 809.618 306.661 809.275 307.536C808.9 308.379 808.213 309.941 807.713 310.972C807.245 312.002 806.214 314.189 805.495 315.813C804.746 317.437 802.028 322.966 799.498 328.12C794.844 337.49 794.657 337.959 796.062 337.99C796.281 337.99 797.031 337.053 797.718 335.866C799.561 332.868 800.623 331.181 803.59 326.589C807.838 320.061 808.119 319.593 810.337 315.813C816.896 304.631 821.488 293.98 824.205 283.797C825.58 278.612 825.798 277.581 826.329 273.333C827.266 265.68 825.673 258.84 821.613 253.186C818.77 249.219 812.086 243.628 812.086 245.19Z" fill="#008000"/>
<path d="M786.161 352.202C786.161 352.796 786.317 353.296 786.473 353.296C786.661 353.296 786.786 353.015 786.786 352.671C786.786 351.984 787.286 351.828 787.504 352.421C787.723 353.108 788.098 352.452 787.879 351.765C787.754 351.328 787.411 351.109 786.911 351.109C786.255 351.109 786.161 351.265 786.161 352.202Z" fill="#008000"/>
<path d="M789.191 351.328C788.816 351.672 788.941 352.047 789.378 351.859C789.909 351.672 790.534 352.984 790.534 354.233C790.534 354.983 790.659 355.17 791.19 355.17C791.783 355.17 791.814 355.045 791.596 353.359C791.502 352.39 791.346 351.484 791.252 351.328C791.096 351.047 789.472 351.047 789.191 351.328Z" fill="#008000"/>
<path d="M806.995 426.293C806.495 427.168 806.464 429.26 806.932 430.26C807.557 431.541 807.463 431.759 805.995 432.446C804.559 433.134 804.184 434.133 804.371 436.788L804.496 438.912L803.184 439.537C800.311 440.88 799.905 442.379 801.966 444.128C802.56 444.628 803.028 445.19 803.028 445.378C803.028 446.003 804.84 449.001 805.777 449.969C806.277 450.469 806.87 451.406 807.089 452C807.307 452.593 807.682 453.312 807.932 453.593C808.182 453.874 808.525 454.967 808.744 456.029C809.056 457.528 809.4 458.216 810.368 459.215C812.461 461.433 813.086 461.683 816.647 461.683C818.396 461.683 820.27 461.839 820.801 462.026C821.707 462.339 821.894 462.307 822.488 461.714C823.112 461.089 823.175 460.746 823.144 457.06C823.144 453.405 823.081 452.937 822.3 451.344C821.832 450.375 821.457 449.438 821.457 449.282C821.457 449.095 822.113 448.845 822.956 448.751C823.768 448.689 824.924 448.501 825.549 448.408C826.267 448.283 826.767 448.314 826.892 448.533C827.204 449.001 828.422 448.97 829.484 448.408C829.953 448.158 830.859 447.752 831.452 447.471C833.076 446.783 833.639 445.628 833.639 442.941C833.639 441.161 833.764 440.505 834.295 439.787C835.107 438.631 834.826 438.194 833.482 438.444C832.764 438.569 831.733 438.412 830.39 437.975C829.266 437.6 827.798 437.319 827.079 437.319C826.392 437.319 825.58 437.194 825.268 437.038C824.986 436.882 824.174 436.507 823.487 436.226C822.8 435.913 821.832 435.289 821.301 434.851C820.801 434.383 819.302 433.352 818.021 432.54C816.709 431.759 814.71 430.354 813.554 429.448C810.431 426.949 807.463 425.512 806.995 426.293Z" fill="#008000"/>
<path d="M592.689 353.264C592.44 353.67 591.94 358.887 592.158 359.074C592.565 359.511 593.096 359.043 594.001 357.356C595.126 355.326 595.095 355.013 593.658 353.67C593.189 353.202 592.814 353.046 592.689 353.264Z" fill="#008000"/>
<path d="M549.084 365.634V374.223L549.803 374.536C551.115 375.098 557.643 375.848 562.672 376.004C566.92 376.129 568.138 376.066 570.731 375.535C575.041 374.63 579.883 372.099 580.695 370.319C581.038 369.538 580.257 365.009 579.539 363.603C579.133 362.854 579.102 362.823 575.603 362.948C569.419 363.104 564.452 362.135 558.674 359.574C555.363 358.106 551.615 357.044 549.897 357.044H549.084V365.634Z" fill="#008000"/>
<path d="M582.288 362.229C581.913 362.385 581.976 362.791 582.507 364.072C582.881 364.978 583.506 368.882 583.287 369.195C583.225 369.351 583.319 369.601 583.537 369.788C584.006 370.194 586.661 369.382 589.472 367.945C593.127 366.102 593.376 365.384 590.659 364.135C588.004 362.916 583.225 361.823 582.288 362.229Z" fill="#008000"/>
<path d="M584.224 373.255C583.381 373.568 581.757 374.286 580.663 374.817C579.57 375.379 577.04 376.472 575.041 377.253C571.699 378.565 571.168 378.69 567.201 378.94C563.265 379.19 560.392 379.159 552.27 378.721L549.084 378.565L549.147 384.594L549.241 390.622L550.49 390.56C551.177 390.497 553.145 390.185 554.863 389.841C560.642 388.685 562.172 388.592 568.201 388.904C571.355 389.06 574.697 389.31 575.697 389.404L577.446 389.591L578.696 387.905C579.383 386.999 580.945 385.25 582.163 384.063C585.005 381.314 586.098 379.565 586.567 377.191C586.786 376.16 587.035 374.786 587.192 374.161C587.317 373.505 587.348 372.912 587.254 372.818C586.942 372.506 585.786 372.693 584.224 373.255Z" fill="#008000"/>
<path d="M197.781 392.527C196.813 393.089 196.5 393.183 196.625 392.808C196.906 392.09 196.563 392.215 193.908 393.745C192.565 394.526 191.128 395.151 190.722 395.151C189.535 395.151 189.535 395.432 190.69 396.931C191.846 398.431 192.814 400.149 192.627 400.305C192.565 400.367 191.909 399.93 191.159 399.337C190.066 398.493 189.535 398.275 188.504 398.306C187.786 398.337 186.599 398.118 185.818 397.806C184.568 397.337 184.287 397.306 183.413 397.681L182.444 398.118L186.224 402.429C189.847 406.521 190.035 406.677 190.128 405.802C190.191 405.146 191.065 403.928 193.096 401.648C197.094 397.15 197.906 396.088 198.78 394.089C199.967 391.403 199.874 391.247 197.781 392.527Z" fill="#008000"/>
<path d="M180.976 396.088C180.883 396.244 180.914 396.401 181.101 396.401C181.258 396.401 181.507 396.244 181.601 396.088C181.695 395.901 181.664 395.776 181.476 395.776C181.32 395.776 181.07 395.901 180.976 396.088Z" fill="black"/>
<path d="M209.432 449.219C207.901 450.063 206.558 450.75 206.402 450.75C206.246 450.75 206.121 450.406 206.121 449.969C206.121 449.094 205.715 449.001 204.622 449.625C203.903 450 203.966 450.094 207.745 453.686C209.838 455.716 211.962 457.622 212.399 457.965L213.243 458.559L213.461 453.748C213.586 451.093 213.586 448.782 213.493 448.595C212.868 447.595 212.181 447.689 209.432 449.219Z" fill="#008000"/>
<path d="M238.012 450.563C237.731 450.906 238.325 453.936 240.636 464.056C242.292 471.24 243.697 477.175 243.76 477.238C243.822 477.3 246.321 474.926 249.32 471.928C253.349 467.898 255.161 465.868 256.379 463.931L258.003 461.308L256.972 461.526C256.41 461.651 255.629 462.151 255.254 462.619C254.442 463.619 252.474 464.494 250.975 464.494C250.069 464.494 249.726 464.743 248.695 466.024L247.445 467.555L246.477 466.805L245.509 466.024L248.195 462.557C250.538 459.59 250.85 459.027 250.538 458.528C249.757 457.278 250.1 456.216 251.881 454.217L253.599 452.281L252.912 451.375C252.131 450.281 252.1 450.281 251.381 450.937C250.85 451.406 250.694 451.406 249.476 450.906C248.726 450.625 247.945 450.281 247.695 450.188C247.352 450.063 247.289 450.281 247.445 451.312C247.539 452.031 247.57 452.624 247.539 452.624C247.508 452.624 246.415 452.281 245.165 451.843C243.916 451.406 242.823 451.125 242.76 451.187C242.666 451.25 242.854 451.75 243.135 452.312C243.666 453.311 243.572 454.186 242.979 454.186C242.791 454.186 242.479 453.842 242.292 453.405C242.042 452.843 241.698 452.624 241.073 452.624C240.355 452.624 240.074 452.374 239.543 451.375C238.856 450.032 238.575 449.875 238.012 450.563Z" fill="#008000"/>
<path d="M198.468 457.934C198.187 458.371 199.187 459.652 201.311 461.682C203.404 463.65 205.496 465.149 211.119 468.742L214.992 471.209L213.336 471.303C212.181 471.365 211.337 471.209 210.525 470.803L209.37 470.178L208.87 471.084C208.401 471.865 208.214 471.959 207.339 471.771C206.496 471.615 206.371 471.646 206.527 472.084C206.839 472.865 206.433 472.74 203.435 471.053C200.436 469.366 200.186 469.273 200.186 469.866C200.186 470.085 201.155 470.959 202.31 471.771C205.996 474.364 205.715 474.052 204.872 474.957C204.466 475.395 204.184 475.801 204.278 475.863C204.559 476.144 216.585 483.828 216.616 483.766C216.741 483.641 220.489 467.149 220.489 466.774C220.489 466.586 219.771 466.336 218.896 466.211C217.21 465.962 215.492 465.181 211.743 462.838L209.401 461.401L208.745 462.026L208.058 462.651L205.777 461.495C204.497 460.87 202.685 459.746 201.717 458.996C200.061 457.653 198.874 457.278 198.468 457.934Z" fill="#008000"/>
<path d="M136.185 487.795L134.218 490.138L133.437 489.419L132.687 488.732L126.596 491.762C123.254 493.417 120.162 494.792 119.724 494.792C119.131 494.792 117.382 495.448 116.851 495.885C116.788 495.947 117.85 501.195 118.537 504.131C118.694 504.818 118.756 504.787 120.38 503.257C121.661 502.038 122.286 501.664 123.035 501.664C123.879 501.664 124.785 500.945 129.314 496.572C132.219 493.792 135.904 490.325 137.529 488.857C139.122 487.389 140.371 486.108 140.246 485.983C140.121 485.858 139.621 485.671 139.122 485.577C138.278 485.452 137.997 485.671 136.185 487.795Z" fill="#008000"/>
<path d="M198.624 486.171C198.624 486.92 199.873 488.794 201.341 490.169C207.776 496.26 207.714 496.197 210.462 497.134C211.868 497.603 213.148 497.853 213.305 497.728C213.43 497.572 213.929 495.729 214.398 493.636C215.366 489.45 215.366 489.482 213.555 488.201L212.68 487.545L212.336 488.513C212.086 489.201 211.805 489.482 211.337 489.482C209.994 489.45 208.245 488.888 207.557 488.263C206.714 487.451 206.433 487.451 206.433 488.17C206.433 489.232 206.089 489.138 204.809 487.732C203.59 486.421 203.497 486.389 202.966 486.858C202.435 487.358 202.279 487.326 200.842 486.702C199.374 486.077 198.624 485.89 198.624 486.171Z" fill="#008000"/>
<path d="M173.542 497.728C173.448 498.072 173.198 500.914 172.98 504.038C172.667 508.442 172.667 509.91 172.98 510.753C173.323 511.753 173.292 511.878 172.542 512.503C171.824 513.127 171.387 513.221 168.763 513.221H165.827V511.066C165.827 509.848 165.702 508.786 165.514 508.692C165.327 508.567 165.202 509.379 165.202 510.847V513.221H163.765H162.328L162.61 508.754C162.734 506.318 162.859 503.069 162.859 501.539C162.859 499.134 162.797 498.728 162.235 498.353C161.672 498.009 161.298 498.134 158.83 499.509C157.3 500.352 155.956 501.039 155.8 501.039C155.644 501.039 155.519 500.696 155.519 500.258C155.519 499.321 155.238 499.29 153.645 500.102C152.708 500.571 152.396 500.914 152.396 501.508C152.396 502.413 151.146 503.444 150.771 502.82C150.584 502.538 150.365 502.632 149.959 503.194C149.397 503.882 149.335 503.913 148.429 503.413C147.554 502.976 147.429 502.976 147.086 503.413C146.742 503.819 146.617 503.819 146.149 503.382C145.399 502.695 145.149 502.788 143.962 504.006C143.369 504.6 142.806 505.1 142.681 505.1C142.556 505.1 142.307 504.662 142.088 504.163C141.869 503.632 141.588 503.132 141.432 503.069C141.307 502.976 140.526 503.319 139.714 503.85C138.34 504.725 138.183 504.756 137.684 504.288C137.153 503.819 136.965 503.85 134.997 504.944C133.28 505.881 132.78 506.037 132.342 505.756C131.936 505.506 131.593 505.506 131.156 505.724C130.593 506.037 130.531 505.943 130.531 504.85C130.531 504.194 130.437 503.569 130.343 503.444C130.25 503.351 129.625 503.475 128.969 503.694C128.344 503.913 125.846 504.537 123.472 505.1C121.098 505.631 119.099 506.131 119.036 506.193C118.974 506.255 119.411 508.661 119.973 511.565L121.035 516.813H165.046H209.088L210.556 510.41C211.399 506.88 212.024 503.725 211.993 503.413C211.868 502.601 210.931 502.039 210.462 502.507C210.181 502.788 210.212 503.038 210.556 503.6L211.056 504.35L208.338 503.788C206.87 503.475 205.246 503.226 204.746 503.226C204.09 503.226 203.497 502.851 202.622 501.945C201.435 500.727 201.373 500.696 200.81 501.195C200.248 501.726 200.123 501.726 198.874 501.195C198.124 500.914 197.343 500.571 197.093 500.477C196.75 500.352 196.687 500.571 196.843 501.601C196.937 502.32 196.968 502.913 196.937 502.913C196.906 502.913 195.813 502.57 194.563 502.132C193.314 501.695 192.221 501.414 192.158 501.476C192.064 501.539 192.252 502.039 192.533 502.601C193.064 503.6 192.97 504.475 192.377 504.475C192.189 504.475 191.877 504.131 191.69 503.694C191.44 503.132 191.096 502.913 190.471 502.913C189.753 502.913 189.472 502.663 188.941 501.664C188.223 500.258 188.004 500.165 187.254 501.008C186.879 501.414 186.786 501.851 186.942 502.413C187.067 502.913 186.973 503.413 186.754 503.725C186.38 504.131 186.255 504.1 185.474 503.351C184.724 502.632 184.506 502.57 184.099 502.913C183.662 503.257 183.412 503.101 182.1 501.726C181.288 500.82 180.476 500.102 180.289 500.102C180.101 500.102 179.726 500.008 179.445 499.915C179.102 499.79 178.946 499.883 178.946 500.258C178.946 500.758 178.883 500.758 178.133 500.258C177.696 499.977 176.822 499.227 176.166 498.572C174.698 497.103 173.761 496.791 173.542 497.728Z" fill="#008000"/>
</g>
<path d="M181.68 625.366L172.875 644.235C171.827 642.977 169.835 641.615 166.9 640.147C163.964 638.47 160.4 637.002 156.207 635.744C152.224 634.486 147.821 633.438 142.999 632.599C138.177 631.551 133.46 631.027 128.847 631.027C124.235 631.027 119.832 631.551 115.639 632.599C111.655 633.438 108.091 634.906 104.946 637.002C101.802 639.099 99.2856 641.929 97.3987 645.493C95.7215 649.057 94.8829 653.355 94.8829 658.387C94.8829 665.096 97.3987 671.805 102.43 678.514C107.672 685.013 115.639 690.15 126.331 693.924C140.169 699.375 150.966 705.14 158.723 711.22C166.69 717.3 172.56 723.38 176.334 729.46C180.318 735.54 182.833 741.516 183.882 747.386C184.93 753.256 185.454 758.707 185.454 763.739C184.825 781.141 179.269 794.663 168.787 804.308C158.304 813.952 142.789 818.774 122.243 818.774C113.857 818.774 104.632 817.83 94.5684 815.943C84.7146 814.266 73.9173 811.541 62.1766 807.767L69.0952 785.753C75.5945 788.269 83.6663 790.68 93.3105 792.986C103.164 795.083 112.913 796.131 122.557 796.131C128.218 796.131 133.564 795.607 138.596 794.559C143.628 793.51 148.031 791.833 151.804 789.527C155.578 787.011 158.513 783.761 160.61 779.778C162.916 775.794 164.069 770.867 164.069 764.997C163.86 754.934 161.449 746.862 156.836 740.782C152.433 734.702 146.878 729.67 140.169 725.687C133.46 721.703 126.226 718.139 118.469 714.994C110.712 711.849 103.479 708.076 96.7698 703.673C90.2704 699.27 84.8194 693.714 80.4166 687.005C76.0139 680.296 73.8125 671.386 73.8125 660.274C73.8125 651.259 75.1752 643.606 77.9008 637.317C80.6263 631.027 84.4001 625.995 89.2222 622.222C94.2539 618.238 100.019 615.408 106.519 613.73C113.228 611.844 120.461 610.9 128.218 610.9C138.282 610.9 148.031 612.263 157.465 614.988C166.9 617.504 174.971 620.964 181.68 625.366ZM333.261 641.091L319.424 649.896C316.07 645.074 311.038 640.776 304.329 637.002C297.62 633.228 290.492 631.342 282.944 631.342C274.139 631.342 265.962 633.543 258.414 637.946C251.076 642.139 244.577 648.219 238.916 656.186C233.465 664.153 229.167 673.692 226.023 684.804C222.878 695.916 221.305 708.18 221.305 721.598C221.515 733.339 223.612 743.927 227.595 753.361C231.788 762.796 237.134 770.867 243.634 777.576C250.133 784.076 257.366 789.108 265.333 792.672C273.3 796.236 281.267 798.018 289.234 798.018C299.717 798.018 309.151 795.712 317.537 791.099C325.924 786.277 333.471 778.625 340.18 768.142L352.759 786.382C343.325 797.703 333.157 805.985 322.255 811.226C311.352 816.468 299.821 819.088 287.661 819.088C276.55 819.088 265.752 816.572 255.27 811.541C244.787 806.509 235.457 799.485 227.28 790.47C219.104 781.245 212.5 770.238 207.468 757.449C202.646 744.451 200.235 730.089 200.235 714.365C200.235 702.415 201.807 690.36 204.952 678.2C208.097 666.04 212.919 655.033 219.418 645.179C226.127 635.325 234.618 627.358 244.892 621.278C255.374 614.988 267.849 611.844 282.315 611.844C293.217 611.844 303.386 614.045 312.82 618.448C322.255 622.85 329.068 630.398 333.261 641.091ZM396.158 728.517V834.184H372.886V633.543L387.982 619.706C392.804 619.077 397.626 618.553 402.448 618.133C407.48 617.714 412.407 617.504 417.229 617.504C428.55 617.504 439.557 618.657 450.249 620.964C460.942 623.06 470.481 626.519 478.867 631.342C487.254 635.954 493.963 641.929 498.994 649.267C504.236 656.605 506.856 665.515 506.856 675.998C506.856 685.433 505.179 693.4 501.825 699.899C498.47 706.398 493.963 711.849 488.302 716.252C482.641 720.445 476.247 723.695 469.118 726.001C461.99 728.098 454.652 729.565 447.105 730.404L496.793 809.654L480.44 820.975L425.091 731.662C420.059 731.662 415.132 731.557 410.31 731.347C405.488 731.138 400.771 730.194 396.158 728.517ZM397.416 709.648C405.593 711.954 415.027 713.107 425.72 713.107C432.638 713.107 439.662 712.583 446.79 711.535C453.918 710.277 460.313 708.285 465.974 705.56C471.844 702.625 476.561 698.746 480.125 693.924C483.689 689.102 485.472 683.127 485.472 675.998C485.472 669.918 483.899 664.467 480.754 659.645C477.609 654.823 473.207 650.84 467.546 647.695C462.095 644.34 455.596 641.824 448.048 640.147C440.71 638.26 432.743 637.317 424.147 637.317C420.164 637.317 416.18 637.526 412.197 637.946C408.213 638.365 404.125 638.994 399.932 639.833C398.884 650.944 398.15 662.685 397.731 675.055C397.521 687.424 397.416 698.956 397.416 709.648ZM612.523 808.396H537.676V790.785H562.206V633.543H526.983V616.561L596.17 612.158V630.398L573.527 632.285V789.527H612.523V808.396ZM660.324 637.946L666.614 710.906C674.371 710.906 682.967 710.591 692.402 709.962C702.046 709.124 711.061 707.342 719.447 704.616C727.834 701.891 734.857 697.907 740.518 692.666C746.388 687.424 749.323 680.191 749.323 670.966C749.323 663.838 747.751 657.968 744.606 653.355C741.461 648.533 737.268 644.864 732.027 642.348C726.785 639.623 720.81 637.736 714.101 636.688C707.602 635.639 700.788 635.115 693.66 635.115C687.37 635.115 681.29 635.43 675.42 636.059C669.549 636.478 664.518 637.107 660.324 637.946ZM667.243 730.404L674.791 832.297L654.664 833.555L639.569 630.398L649.632 618.448C656.76 617.819 663.889 617.295 671.017 616.875C678.145 616.456 685.169 616.246 692.087 616.246C702.989 616.246 713.053 616.98 722.278 618.448C731.712 619.915 739.889 622.746 746.807 626.939C753.726 630.922 759.177 636.583 763.161 643.921C767.144 651.049 769.136 660.379 769.136 671.91C769.136 685.328 765.781 695.811 759.072 703.358C752.573 710.906 744.292 716.671 734.228 720.655C724.165 724.429 713.158 726.945 701.207 728.203C689.257 729.251 677.936 729.985 667.243 730.404ZM850.273 637.317H781.715V619.077H940.844V634.801H869.771L886.753 815.943L866.626 817.83L850.273 637.317Z" fill="black"/>
<defs>
<clipPath id="clip0">
<rect width="916.462" height="333" fill="white" transform="translate(54 184)"/>
</clipPath>
</defs>
</svg>
