<svg width="1920" height="1080" viewBox="0 0 1920 1080" fill="none" xmlns="http://www.w3.org/2000/svg">
<rect width="1920" height="1080" fill="white"/>
<path d="M138 49.6725C138 50.8492 249.504 603.327 250.008 604.56C250.345 605.456 251.129 604.392 253.931 598.844C256.564 593.633 257.853 591.728 259.254 590.832C260.262 590.215 261.495 589.711 261.887 589.711C264.297 589.711 266.986 588.422 267.547 587.022C267.883 586.181 275.279 578.449 283.964 569.82C296.907 556.988 300.325 553.29 302.679 549.48L305.592 544.773L303.743 545.166C302.735 545.39 301.334 546.286 300.662 547.127C299.205 548.92 295.675 550.489 292.985 550.489C291.36 550.489 290.744 550.937 288.895 553.234L286.654 555.98L284.917 554.635L283.18 553.234L287.998 547.015C292.201 541.692 292.761 540.683 292.201 539.786C290.632 537.321 291.36 535.696 296.459 529.925C299.149 526.899 302.399 523.145 303.631 521.576C305.929 518.662 308.786 512.611 308.17 511.994C308.002 511.826 306.713 512.387 305.312 513.171C303.519 514.236 302.847 514.404 303.071 513.787C303.575 512.499 302.959 512.723 298.196 515.468C295.787 516.869 293.377 517.99 292.761 517.99C292.201 517.99 287.606 519.503 282.563 521.352C277.52 523.201 273.206 524.714 272.926 524.714C272.477 524.714 280.154 513.563 284.748 507.624C286.878 504.878 293.658 496.642 297.58 492.047C298.14 491.487 298.252 490.87 297.916 490.59C297.636 490.31 292.145 491.206 284.804 492.775C277.856 494.232 272.701 495.129 273.262 494.793C273.878 494.456 276.624 492.495 279.369 490.422C282.787 487.901 284.973 486.612 285.981 486.612C287.27 486.612 287.942 485.939 290.128 482.69C291.808 480.112 294.946 476.75 299.261 472.94C309.291 464.031 314.165 458.596 312.26 458.596C311.98 458.596 310.411 459.1 308.842 459.716C307.273 460.389 305.929 460.781 305.873 460.725C305.817 460.613 305.48 459.884 305.088 458.988C304.472 457.475 304.36 457.475 299.429 457.475C295.339 457.475 294.386 457.307 294.106 456.579C293.545 455.178 294.666 454.281 298.532 452.993C303.799 451.256 324.027 437.36 324.027 435.454C324.027 435.174 323.018 435.118 321.842 435.342C320.049 435.623 319.432 435.51 318.48 434.558L317.303 433.381L322.738 426.265C333.328 412.257 337.811 404.3 344.591 387.323C347.673 379.534 347.953 379.03 349.354 379.03C350.642 379.03 350.922 379.31 351.147 380.823C352.659 390.292 354.453 399.089 355.405 401.555C356.974 405.757 360.392 410.016 366.892 415.955L372.495 421.11L374.176 418.981C376.305 416.403 387.175 403.18 388.352 401.835C388.856 401.275 389.024 400.658 388.688 400.378C388.408 400.098 382.917 400.995 375.577 402.563C368.629 404.02 363.474 404.917 364.034 404.581C364.65 404.244 367.396 402.283 370.142 400.21C373.56 397.689 375.745 396.4 376.753 396.4C378.042 396.4 378.714 395.728 380.9 392.478C382.581 389.9 385.719 386.538 390.033 382.728C400.063 373.819 404.938 368.384 403.032 368.384C402.752 368.384 401.183 368.888 399.615 369.504C398.046 370.177 396.701 370.569 396.645 370.513C396.589 370.401 396.253 369.673 395.86 368.776C395.244 367.263 395.132 367.263 390.201 367.263C386.111 367.263 385.158 367.095 384.878 366.367C384.318 364.966 385.438 364.069 389.305 362.781C394.572 361.044 414.799 347.148 414.799 345.243C414.799 344.962 413.791 344.906 412.614 345.13C410.821 345.411 410.205 345.299 409.252 344.346L408.075 343.169L413.51 336.053C424.101 322.045 428.583 314.089 435.363 297.111C438.445 289.322 438.725 288.818 440.126 288.818C441.415 288.818 441.695 289.098 441.919 290.611C443.432 300.081 445.225 308.878 446.177 311.343C448.307 316.946 451.276 320.14 469.094 335.941C473.185 339.583 478.228 346.083 477.499 346.811C477.331 346.923 476.098 346.139 474.754 345.074C472.681 343.449 471.896 343.113 470.439 343.337C469.038 343.562 467.189 343.057 462.875 341.152C459.737 339.807 456.992 338.855 456.767 339.079C456.487 339.359 459.737 343.449 463.94 348.212C475.762 361.66 476.042 362.052 475.706 364.742C475.482 366.423 474.866 367.431 473.353 368.776C471.112 370.681 471.168 370.569 472.849 374.828C473.129 375.556 472.288 375.108 470.327 373.427C464.612 368.608 464.108 368.216 464.108 369.112C464.108 370.233 477.443 386.818 480.021 388.948C481.141 389.844 484.391 391.805 487.249 393.318C490.107 394.775 493.188 396.568 494.197 397.296C497.335 399.65 508.373 412.649 508.373 414.05C508.373 416.459 507.308 416.684 500.977 415.843C497.615 415.339 494.981 415.227 494.645 415.507C493.805 416.347 492.012 416.067 488.986 414.666L486.072 413.322L484.952 414.442L483.831 415.563L480.693 413.21C478.956 411.865 477.387 410.968 477.219 411.136C476.323 411.977 502.378 441.394 507.813 445.708L509.774 447.277L514.817 443.635C522.885 437.864 524.118 436.351 520.196 437.023C518.403 437.303 517.786 437.191 516.834 436.239L515.657 435.062L521.092 427.946C531.682 413.938 536.165 405.981 542.945 389.004C546.027 381.215 546.307 380.711 547.708 380.711C548.996 380.711 549.277 380.991 549.501 382.504C551.014 391.973 552.807 400.77 553.759 403.236C555.888 408.839 558.858 412.033 576.676 427.834C580.767 431.476 585.81 437.976 585.081 438.704C584.913 438.816 583.68 438.032 582.336 436.967C580.262 435.342 579.478 435.006 578.021 435.23C576.62 435.454 574.771 434.95 570.457 433.045C567.319 431.7 564.573 430.748 564.349 430.972C564.069 431.252 567.319 435.342 571.521 440.105C583.344 453.553 583.624 453.945 583.288 456.635C583.064 458.316 582.448 459.324 580.935 460.669C578.694 462.574 578.75 462.462 580.431 466.72C580.711 467.449 579.87 467.001 577.909 465.32C572.194 460.501 571.689 460.109 571.689 461.005C571.689 462.126 585.025 478.711 587.603 480.841C588.723 481.737 591.973 483.698 594.831 485.211C597.688 486.668 600.77 488.461 601.779 489.189C604.917 491.543 615.955 504.542 615.955 505.943C615.955 508.352 614.89 508.576 608.559 507.736C605.197 507.232 602.563 507.12 602.227 507.4C601.387 508.24 599.594 507.96 596.568 506.559L593.654 505.215L592.533 506.335L591.413 507.456L588.275 505.102C586.538 503.758 584.969 502.861 584.801 503.029C584.185 503.59 601.499 523.817 609.175 531.494C613.377 535.64 621.39 542.924 627.049 547.631C632.653 552.338 637.247 556.428 637.247 556.764C637.247 557.156 636.014 557.268 633.549 557.044C629.459 556.652 626.433 555.363 619.597 551.105L615.114 548.303L613.938 549.424L612.705 550.545L608.615 548.471C606.317 547.351 603.068 545.278 601.275 543.933C598.193 541.467 595.895 540.907 595.391 542.476C595.055 543.429 601.499 550.04 605.757 553.178C607.83 554.691 613.041 558.165 617.356 560.911L625.144 565.897L622.175 566.066C620.101 566.178 618.645 565.953 617.132 565.169L615.058 564.048L614.162 565.673C613.321 567.074 612.985 567.242 611.416 566.906C609.903 566.626 609.679 566.682 609.96 567.466C610.52 568.867 609.791 568.643 604.412 565.617C599.033 562.592 598.585 562.423 598.585 563.488C598.585 563.88 600.322 565.449 602.395 566.906C609.007 571.613 608.503 570.996 606.99 572.621C606.093 573.574 605.813 574.246 606.205 574.47C606.542 574.695 614.162 579.625 623.183 585.397C632.148 591.224 639.488 596.267 639.488 596.603C639.432 596.995 639.152 597.836 638.76 598.508L638.088 599.797L634.782 597.78C631.812 596.043 631.476 595.931 630.86 596.771C630.243 597.556 630.019 597.612 628.898 596.939C627.778 596.211 627.554 596.267 626.545 597.5C625.48 598.844 625.424 598.844 624.192 597.724C621.11 595.034 621.054 595.034 620.382 596.939C619.933 598.172 619.429 598.676 618.588 598.676C616.179 598.62 613.041 597.612 611.809 596.491C610.296 595.034 609.791 595.034 609.791 596.323C609.791 598.228 609.175 598.06 606.878 595.539C604.749 593.185 604.524 593.129 603.572 593.97C602.619 594.81 602.339 594.81 599.481 593.577C597.744 592.905 596.232 592.457 596.064 592.625C595.335 593.353 597.688 597.107 600.658 599.909C612.257 610.891 612.089 610.723 617.076 612.404C623.575 614.533 629.066 617.279 632.877 620.249C635.902 622.602 636.071 622.882 635.454 624.171C635.118 624.955 634.67 625.572 634.502 625.572C634.334 625.572 632.709 624.675 630.916 623.611C627.778 621.706 627.61 621.706 627.329 622.77C626.993 624.115 626.713 624.171 625.368 622.938C624.416 622.098 624.248 622.098 622.959 623.33L621.558 624.675L619.989 623.162C619.093 622.322 618.14 621.65 617.804 621.65C616.627 621.65 616.403 622.77 617.244 624.059L618.084 625.348L613.209 624.339C610.576 623.779 607.662 623.33 606.766 623.33C605.589 623.33 604.524 622.658 602.955 621.033C600.826 618.848 600.714 618.792 599.706 619.688C598.697 620.641 598.473 620.641 596.232 619.688C594.887 619.184 593.486 618.568 593.038 618.4C592.421 618.176 592.309 618.568 592.59 620.417C592.758 621.706 592.814 622.77 592.758 622.77C592.702 622.77 590.74 622.154 588.499 621.369C586.258 620.585 584.297 620.081 584.185 620.193C584.017 620.305 584.353 621.201 584.857 622.21C585.81 624.003 585.642 625.572 584.577 625.572C584.241 625.572 583.68 624.955 583.344 624.171C582.896 623.162 582.28 622.77 581.159 622.77C579.87 622.77 579.366 622.322 578.413 620.529C577.125 618.007 576.732 617.839 575.388 619.352C574.715 620.081 574.547 620.865 574.827 621.874C575.051 622.77 574.883 623.667 574.491 624.227C573.819 624.955 573.595 624.899 572.194 623.555C570.849 622.266 570.457 622.154 569.728 622.77C568.944 623.387 568.496 623.106 566.142 620.641C564.685 619.016 563.229 617.727 562.892 617.727C562.556 617.727 561.884 617.559 561.38 617.391C560.763 617.167 560.483 617.335 560.483 618.007C560.483 618.904 560.371 618.904 559.026 618.007C558.242 617.503 556.673 616.158 555.496 614.982C552.863 612.348 551.182 611.788 550.789 613.469C550.621 614.085 550.173 619.184 549.781 624.787C549.221 632.688 549.221 635.321 549.781 636.834C550.397 638.627 550.341 638.851 548.996 639.972C547.708 641.093 546.923 641.261 542.217 641.261H536.949V637.395C536.949 635.209 536.725 633.304 536.389 633.136C536.053 632.912 535.829 634.369 535.829 637.002V641.261H533.251H530.674L531.178 633.304C531.402 628.878 531.626 623.05 531.626 620.305C531.626 615.99 531.514 615.262 530.506 614.589C529.497 613.973 528.825 614.197 524.398 616.663C521.653 618.176 519.243 619.408 518.963 619.408C518.683 619.408 518.459 618.792 518.459 618.007C518.459 616.326 517.955 616.27 515.097 617.727C513.416 618.568 512.856 619.184 512.856 620.249C512.856 621.874 510.614 623.723 509.942 622.602C509.606 622.098 509.214 622.266 508.485 623.274C507.477 624.507 507.364 624.563 505.74 623.667C504.171 622.882 503.947 622.882 503.33 623.667C502.714 624.395 502.49 624.395 501.649 623.611C500.304 622.378 499.856 622.546 497.727 624.731C496.662 625.796 495.654 626.692 495.486 626.692C495.262 626.692 494.701 625.796 494.197 624.731C493.132 622.49 492.908 622.434 491.059 623.835L489.658 624.899L492.124 635.602L494.589 646.304H573.426C648.061 646.304 652.32 646.248 652.6 645.295C652.768 644.791 680.616 510.818 714.572 347.652C748.527 184.486 776.375 50.513 776.543 49.9526C776.823 49.0562 772.117 49.0001 683.082 49.0001H589.34L569.168 128.622C554.936 184.878 548.884 207.795 548.604 206.899C548.38 206.171 540.76 170.814 531.626 128.286C522.493 85.7573 514.929 50.513 514.761 49.9526C514.481 49.0562 511.231 49.0001 457.16 49.0001H399.839L398.102 56.9567C397.149 61.3832 389.473 97.0757 381.068 136.242C372.663 175.465 365.659 207.571 365.491 207.571C365.323 207.571 356.638 173.728 346.216 132.32C335.738 90.9683 326.717 55.2757 326.1 53.0344L325.036 49.0001H231.518C157.051 49.0001 138 49.1682 138 49.6725ZM272.309 178.883C274.27 180.956 275.839 182.805 275.839 183.029C275.839 183.309 276.344 183.477 276.96 183.477C278.417 183.477 278.361 183.253 276.4 180.284C275.503 178.939 274.719 177.314 274.719 176.642C274.719 175.465 274.775 175.465 275.839 176.473C276.456 177.034 278.809 180.228 280.994 183.59C283.18 186.895 285.197 189.641 285.477 189.641C285.701 189.641 285.925 188.857 285.925 187.96C285.925 187.008 286.093 186.279 286.373 186.279C286.878 186.335 289.287 191.826 291.584 198.046C292.537 200.679 294.106 204.546 295.17 206.731C297.019 210.709 298.42 217.209 299.373 226.454C299.877 231.273 301.446 236.708 303.127 239.51C304.08 241.135 304.248 241.191 307.89 241.191C310.859 241.191 311.812 241.415 312.092 242.031C312.26 242.535 312.036 243.208 311.588 243.6C310.355 244.609 307.217 248.867 307.217 249.483C307.217 250.436 314.95 258.393 319.376 261.979C322.514 264.556 324.083 266.405 326.156 269.935C327.669 272.457 329.798 275.987 330.919 277.724C333.272 281.31 333.328 281.534 332.152 281.534C331.479 281.534 331.367 282.094 331.647 284.728C331.815 286.521 332.04 288.258 332.152 288.65C332.264 288.986 331.984 289.603 331.535 289.939C330.975 290.443 330.751 290.443 330.751 289.995C330.751 289.659 330.415 289.378 330.022 289.378C329.182 289.378 327.949 291.676 327.949 293.301C327.949 293.861 327.669 294.533 327.389 294.701C326.436 295.262 325.148 293.861 325.148 292.348C325.148 291.564 324.924 291.171 324.587 291.34C324.307 291.508 324.027 292.068 324.027 292.572C324.027 293.749 322.346 297.223 321.73 297.223C321.45 297.223 321.225 296.102 321.225 294.701C321.225 293.301 321.057 292.18 320.833 292.18C320.553 292.18 319.656 293.469 318.704 295.038L317.023 297.839L316.575 296.27C316.351 295.43 316.295 293.525 316.519 292.012C316.799 289.827 316.687 289.378 315.958 289.378C315.51 289.378 314.67 290.219 314.165 291.171C313.661 292.18 312.989 293.357 312.652 293.749C311.644 295.038 311.252 293.02 311.924 289.883C312.54 286.801 312.148 285.96 310.691 287.305C308.842 288.986 307.778 288.538 307.778 286.129C307.778 283.943 307.666 283.831 302.735 279.181C300.886 277.444 299.037 276.379 296.851 275.65C296.403 275.538 295.787 274.81 295.451 274.026C295.17 273.297 294.498 272.513 293.938 272.345C293.377 272.12 291.921 270.832 290.688 269.431C289.455 268.03 287.494 265.901 286.373 264.724C284.244 262.539 283.74 261.194 284.804 260.522C285.701 259.961 285.477 259.345 283.964 258.561C283.123 258.112 282.563 257.328 282.563 256.6C282.563 254.078 281.218 253.742 276.512 255.199C274.158 255.927 270.684 256.824 268.891 257.216C265.585 257.944 265.529 257.888 263.12 256.263C261.831 255.311 260.711 254.246 260.711 253.798C260.711 253.35 259.926 252.621 259.03 252.117L257.349 251.22L258.189 249.147C258.693 248.027 259.31 246.85 259.59 246.57C259.87 246.29 263.4 245.897 267.49 245.617C271.525 245.393 275.111 244.945 275.391 244.665C276.175 243.88 275.391 240.91 274.102 239.734C273.542 239.23 273.038 238.277 273.038 237.717C273.038 237.1 272.814 236.148 272.477 235.587C272.029 234.747 272.197 234.299 273.318 233.458C274.943 232.169 274.158 230.769 272.309 231.777C270.964 232.45 270.46 231.777 269.9 228.695C269.732 227.519 269.171 226.398 268.723 226.23C268.051 225.95 267.939 225.334 268.219 223.428C268.387 221.972 268.331 221.019 267.995 221.019C267.659 221.019 267.547 220.403 267.771 219.674C267.939 218.946 267.659 217.433 267.21 216.256C266.37 214.351 266.37 214.015 267.154 213.175C267.659 212.67 267.883 211.83 267.715 211.382C267.49 210.877 267.939 210.317 268.835 209.813C270.628 208.86 270.628 208.132 268.779 208.132C267.49 208.132 267.378 207.964 267.659 206.787C267.883 205.946 267.659 205.218 267.154 204.77C266.65 204.378 266.426 203.593 266.65 202.865C267.098 201.016 265.978 198.606 263.344 195.861L260.991 193.395L262.84 193.731C263.848 193.956 264.633 193.843 264.633 193.563C264.633 193.227 264.353 193.003 263.96 193.003C263.624 193.003 263.512 192.835 263.68 192.611C263.904 192.443 262.784 191.434 261.271 190.369C256.564 187.232 258.301 186.223 263.736 188.913C267.547 190.762 268.499 190.145 265.473 187.736C264.297 186.783 262.279 185.046 260.991 183.926C258.974 182.021 258.862 181.797 260.038 181.797C261.383 181.797 264.969 183.421 267.547 185.214C269.956 186.951 269.115 185.102 265.81 181.46C264.129 179.667 263.12 178.098 263.456 177.986C264.185 177.762 267.603 179.947 269.956 182.077C271.077 183.197 271.413 183.253 271.973 182.581C272.589 181.853 272.085 181.516 270.684 181.74C270.404 181.74 270.236 181.404 270.236 180.956C270.236 180.508 269.284 178.827 268.163 177.258C266.202 174.512 266.146 174.4 267.49 174.736C268.219 174.961 270.404 176.81 272.309 178.883ZM587.266 212.054L587.771 215.136L589.34 211.606C590.236 209.701 591.133 208.132 591.301 208.132C591.525 208.132 591.581 209.589 591.469 211.326C591.245 214.575 591.245 214.575 592.253 213.231C595.167 209.252 595.055 209.14 595.111 214.687C595.111 217.489 595.391 220.291 595.727 220.851C596.007 221.467 596.456 225.221 596.624 229.2C596.848 233.178 597.24 236.82 597.464 237.268C598.697 239.734 599.986 250.212 599.818 256.88C599.762 258.617 599.089 262.539 598.305 265.565C597.52 268.646 596.904 271.448 596.904 271.84C596.904 273.073 600.882 275.202 607.214 277.387C612.593 279.237 613.377 279.685 613.994 281.198C614.778 282.991 614.554 284.335 613.49 284.335C613.153 284.335 612.593 284.896 612.313 285.568C611.865 286.577 611.08 286.969 608.951 287.249C606.317 287.697 605.813 287.529 599.986 284.672C596.624 282.991 593.43 281.59 592.982 281.534C591.413 281.31 590.74 281.534 590.74 282.262C590.74 282.655 589.732 284.055 588.443 285.344C585.754 288.202 576.34 293.02 572.474 293.637C569.784 294.029 567.767 294.757 561.324 297.783C559.474 298.68 557.289 299.576 556.449 299.744C555.608 299.968 554.656 300.473 554.263 300.921C553.927 301.369 553.143 301.705 552.639 301.705C552.078 301.705 550.789 302.378 549.781 303.218C548.212 304.563 547.988 304.619 548.324 303.667C549.557 299.632 549.557 299.8 547.932 300.249C546.755 300.529 546.419 300.417 546.587 299.912C546.755 299.464 546.083 298.96 544.85 298.568L542.833 298.007L544.682 297.055C546.475 296.046 547.259 294.589 545.578 295.206C545.074 295.374 546.363 293.693 548.492 291.508C550.565 289.266 553.143 286.241 554.151 284.784C555.664 282.711 556.953 281.702 559.811 280.413C567.879 276.715 568.608 276.267 568.776 274.754C569.056 272.513 565.358 269.599 562.892 269.991C560.091 270.383 560.483 268.646 563.565 267.022C565.47 266.013 567.095 265.677 570.009 265.621C572.194 265.565 574.211 265.228 574.603 264.836C575.612 263.828 575.836 258.393 575.107 253.069C574.043 245.169 574.267 241.583 576.172 234.187C577.293 230.04 578.077 225.39 578.245 221.972C578.525 217.713 578.75 216.649 579.254 217.097C579.646 217.433 580.15 218.386 580.374 219.226C580.711 220.571 580.767 220.627 581.327 219.674C581.663 219.114 582.055 216.873 582.28 214.631L582.672 210.653L583.456 213.006C583.848 214.295 584.353 215.248 584.577 215.136C584.801 214.968 585.137 213.567 585.361 211.942C586.034 206.899 586.482 206.899 587.266 212.054Z" fill="#008000"/>
<path d="M277.632 184.936C278.192 185.496 278.753 185.776 278.977 185.608C279.145 185.384 278.697 184.936 277.968 184.6C276.735 183.927 276.735 183.927 277.632 184.936Z" fill="black"/>
<path d="M268.275 190.203C268.443 190.483 268.723 190.763 268.891 190.763C269.003 190.763 269.115 190.483 269.115 190.203C269.115 189.867 268.835 189.643 268.499 189.643C268.219 189.643 268.107 189.867 268.275 190.203Z" fill="black"/>
<path d="M328.117 287.979C328.117 288.428 328.509 288.82 328.958 288.82C329.35 288.82 329.63 288.54 329.518 288.147C329.182 287.139 328.117 286.971 328.117 287.979Z" fill="black"/>
<path d="M798.62 347.934V646.305H893.034H987.449V582.148V517.991L986.216 517.767C985.488 517.599 983.751 517.375 982.294 517.207C980.837 517.039 978.091 516.254 976.13 515.414C966.437 511.436 961.842 510.147 956.743 510.147C954.054 510.147 950.243 509.867 948.282 509.587C942.959 508.858 944.08 508.018 924.076 527.685C915.84 535.754 906.762 544.607 903.849 547.408C899.254 551.723 898.189 553.124 896.228 557.214C894.996 559.847 893.763 562.985 893.539 564.218C893.315 565.451 892.922 566.739 892.642 567.132C891.746 568.308 892.474 583.941 893.819 590.273C895.724 599.574 896.62 605.178 897.517 612.406C898.245 618.121 898.694 619.746 900.487 623.332C902.672 627.815 905.866 631.401 908.948 633.026C910.068 633.586 910.629 634.202 910.348 634.538C910.068 634.763 907.939 635.323 905.586 635.715C902 636.275 900.823 636.275 898.301 635.603C895.276 634.819 894.603 634.146 892.082 629.552C891.241 628.039 890.849 627.815 888.664 627.815C884.405 627.815 884.518 628.151 883.509 612.013C883.005 604.113 882.388 596.436 882.108 594.924C881.324 590.609 879.867 584.109 879.307 582.709C879.026 581.98 878.522 578.786 878.186 575.649C877.513 569.485 874.488 558.839 873.311 558.447C872.583 558.223 868.1 566.795 868.1 568.42C868.1 568.925 867.876 569.541 867.54 569.877C867.26 570.157 866.587 572.847 866.139 575.705C865.411 580.523 864.85 584.838 863.113 600.359C862.777 602.992 862.385 608.147 862.161 611.901L861.768 618.681L863.954 623.052C865.242 625.629 867.148 628.431 868.604 629.832C871.35 632.465 871.462 632.353 865.747 633.362C861.208 634.146 859.751 633.53 856.838 629.327C854.036 625.293 853.532 624.845 852.579 625.685C851.402 626.638 849.049 625.685 848.433 624.004C847.704 622.323 848.209 607.251 849.049 602.04C849.385 600.359 849.89 597.333 850.17 595.316C850.73 592.066 851.907 566.851 852.019 557.214C852.019 555.197 851.571 552.115 851.066 550.266C849.497 545.055 849.778 544.439 858.35 535.642C864.962 528.918 871.238 522.026 874.264 518.215C878.018 513.565 880.427 506.673 880.819 499.781C881.1 494.178 880.931 493.281 876.953 482.131L874.488 475.127L870.958 475.295L867.372 475.407L869.277 474.118C872.415 472.045 872.022 469.075 867.764 463.36C860.928 454.059 859.975 438.594 866.027 435.68C866.923 435.288 870.453 434.727 873.871 434.391C879.363 433.943 880.707 433.607 885.918 431.31C893.146 428.172 899.59 424.305 900.879 422.4C902.112 420.439 908.836 417.414 914.103 416.349C924.02 414.332 932.593 414.22 942.455 415.957C949.011 417.133 966.717 418.422 976.803 418.478L987.169 418.534L987.337 410.634L987.505 402.733L984.983 402.397C981.789 401.949 972.432 398.082 972.04 397.018C971.816 396.401 972.152 396.345 973.553 396.57C974.561 396.738 977.811 397.298 980.725 397.802C983.639 398.307 986.328 398.811 986.608 398.811C986.944 398.867 987.225 391.751 987.337 378.639L987.449 358.412L985.936 358.075C985.039 357.907 983.19 357.627 981.789 357.403C975.906 356.619 976.971 354.938 983.414 354.938H987.449V202.25V49.562H893.034H798.62V347.934Z" fill="#008000"/>
<path d="M1026.22 199.84L1026.39 350.119L1028.74 351.912C1030.03 352.864 1032.78 354.265 1034.85 354.882C1036.87 355.554 1041.02 357.347 1043.99 358.804C1046.95 360.261 1051.05 361.886 1053.06 362.39C1061.97 364.631 1072.95 365.696 1074.75 364.519C1075.7 363.959 1073.4 361.942 1068.08 358.804C1065.95 357.515 1064.27 356.394 1064.38 356.226C1064.66 355.946 1072.28 358.692 1074.86 359.98C1075.92 360.541 1077.32 361.493 1077.88 362.166C1078.5 362.838 1079.51 363.342 1080.24 363.342C1082.03 363.342 1085.28 360.317 1086.12 357.907C1087.07 354.994 1086.51 342.33 1085.34 340.033C1083.82 337.063 1077.55 332.076 1070.49 328.21C1064.72 325.072 1066.79 325.241 1075.14 328.602C1081.41 331.068 1086.29 334.262 1087.07 336.335C1089.37 342.723 1091.28 352.192 1091.33 357.739C1091.39 362.95 1091.44 363.062 1092.79 363.23C1093.52 363.342 1095.09 363.174 1096.26 362.838C1099.29 361.886 1101.03 359.084 1101.53 354.265C1101.98 349.839 1101.75 349.446 1097.55 347.037C1094.58 345.356 1095.37 344.852 1098.78 346.253C1101.53 347.429 1101.75 347.317 1101.75 345.412C1101.75 343.955 1099.46 340.537 1097.55 339.137C1097.22 338.912 1097.44 338.688 1098 338.688C1100.58 338.688 1103.94 342.779 1104.28 346.309C1104.39 347.429 1104.56 348.382 1104.67 348.438C1104.78 348.494 1106.07 349.559 1107.53 350.735C1109.09 351.968 1110.38 352.64 1110.66 352.36C1110.94 352.08 1112.23 349.839 1113.58 347.373C1117.56 339.865 1116.83 335.046 1110.89 329.611C1109.6 328.49 1108.09 327.426 1107.41 327.202C1106.74 327.034 1106.24 326.641 1106.24 326.361C1106.24 325.521 1109.6 326.417 1113.02 328.098C1116.94 330.059 1118.23 332.076 1119.18 337.792C1120.19 344.179 1119.68 347.709 1117 352.696C1114.81 356.787 1112.06 365.584 1112.62 366.985C1112.74 367.321 1114.03 367.993 1115.43 368.385L1117.95 369.058L1123.44 365.304C1126.46 363.23 1130.5 359.98 1132.4 358.131C1134.31 356.226 1135.99 354.826 1136.16 354.994C1136.27 355.106 1135.26 357.851 1133.92 361.101C1130.95 368.273 1130.84 369.506 1133.02 369.506C1133.92 369.506 1136.1 370.01 1137.95 370.683C1143.78 372.756 1148.88 372.42 1163.95 368.946C1167.82 368.105 1171.85 367.209 1172.92 367.041C1173.98 366.816 1175.88 366.2 1177.12 365.584C1179.19 364.631 1179.58 364.575 1182.38 365.304C1186.7 366.48 1187.09 366.928 1186.76 370.459C1186.48 373.26 1186.53 373.428 1187.76 373.764C1189.84 374.269 1190.68 377.35 1189.5 380.376C1188.21 383.682 1186.19 385.475 1181.66 387.156C1175.83 389.341 1175.1 389.846 1167.7 396.177C1163.95 399.427 1159.69 402.677 1158.23 403.461C1156.11 404.526 1155.49 405.198 1155.04 406.879C1154.7 408.056 1154.42 409.401 1154.42 409.849C1154.42 410.297 1152.8 412.315 1150.78 414.276C1148.77 416.181 1147.14 418.198 1147.14 418.646C1147.14 419.094 1145.96 420.551 1144.56 421.84C1141.59 424.474 1141.54 425.762 1144.34 427.387C1146.86 428.9 1150.11 432.15 1149.66 432.822C1149.49 433.103 1150.11 434.335 1151.06 435.512L1152.8 437.585L1151.34 437.753C1149.66 437.977 1149.66 438.089 1151.06 440.107L1152.18 441.732L1150.39 441.9C1148.77 442.068 1148.54 442.292 1148.37 443.861C1148.26 444.813 1147.81 445.934 1147.36 446.27C1146.92 446.662 1146.58 447.391 1146.58 447.951C1146.58 448.455 1146.08 449.352 1145.46 449.912C1144.84 450.473 1144.34 451.313 1144.34 451.817C1144.34 452.322 1143.83 453.05 1143.22 453.442C1142.6 453.834 1142.1 454.451 1142.1 454.843C1142.1 455.235 1141.59 455.964 1140.98 456.524C1140.36 457.028 1139.86 457.981 1139.86 458.597C1139.86 459.214 1139.63 459.718 1139.41 459.718C1138.46 459.718 1134.25 464.312 1134.25 465.321C1134.25 465.937 1133.8 466.666 1133.19 466.946C1132.63 467.282 1132.01 468.123 1131.79 468.907C1131.34 470.7 1130.78 470.812 1125.51 470.196C1119.46 469.411 1117.44 470.364 1114.75 475.183C1112.96 478.377 1110.78 481.795 1109.04 484.036C1108.25 485.1 1105.62 488.014 1099.29 494.738C1097.83 496.251 1095.59 499.277 1094.19 501.462C1092 504.936 1091.61 506.113 1090.55 512.108C1088.36 524.547 1088.53 534.073 1091.11 548.697C1091.67 552.115 1091.84 556.037 1091.67 567.02C1091.56 574.472 1091.67 575.144 1093.35 580.131C1094.3 582.989 1095.37 586.855 1095.65 588.704C1095.93 590.553 1096.43 592.458 1096.66 592.962C1096.94 593.467 1097.89 595.932 1098.67 598.398C1099.51 600.863 1100.52 603.609 1100.91 604.561C1101.31 605.458 1102.2 607.755 1102.87 609.604C1103.83 611.957 1105.4 614.311 1108.14 617.337C1110.33 619.746 1112.29 622.043 1112.51 622.491C1113.47 624.116 1099.96 624.285 1098 622.66C1097.55 622.323 1096.71 621.035 1096.1 619.858C1094.69 617.056 1093.63 616.72 1091.95 618.289C1091.16 619.017 1090.44 619.522 1090.32 619.354C1089.82 618.793 1088.87 612.91 1088.87 610.276C1088.87 607.699 1088.42 604.449 1086.12 590.273C1085.45 586.183 1084.05 580.523 1083.26 578.786C1082.98 578.17 1082.48 576.153 1082.14 574.304C1081.36 570.157 1081.08 569.205 1078.22 560.968C1076.93 557.326 1075.7 553.18 1075.42 551.723C1074.91 548.921 1073.51 543.038 1072.62 539.844C1071.44 535.585 1069.7 528.189 1068.98 524.435C1067.35 515.918 1065.95 512.612 1063.65 511.94C1061.41 511.324 1051.72 511.492 1050.48 512.22C1049.42 512.836 1049.36 513.341 1049.59 523.146C1049.76 533.512 1050.43 537.995 1053.34 548.809C1054.41 552.787 1054.52 557.886 1053.85 570.101C1053.57 575.032 1053.62 580.075 1054.07 584.67C1055.98 604.225 1055.92 603.945 1060.46 611.733C1067.46 623.612 1067.46 623.612 1059.06 623.612H1053.29L1052.33 621.707C1050.93 618.905 1050.54 618.681 1048.97 619.97C1048.13 620.586 1047.23 621.091 1046.9 621.091C1046.11 621.091 1046.11 605.738 1046.84 602.04C1047.46 599.126 1046.11 580.803 1044.83 574.024C1044.1 570.045 1041.69 561.584 1040.68 559.175C1040.4 558.559 1039.89 556.934 1039.56 555.533C1039.22 554.132 1038.72 552.395 1038.49 551.611C1038.21 550.826 1037.32 547.688 1036.48 544.607C1035.64 541.525 1034.74 538.499 1034.46 537.883C1034.24 537.266 1033.56 535.249 1033.06 533.4C1029.08 518.776 1028.58 517.263 1026.95 516.647C1026.22 516.366 1026.11 523.258 1026.11 581.308V646.305H1190.01H1353.9V586.071V525.836H1284.42H1214.94V287.699V49.562H1120.53H1026.11L1026.22 199.84Z" fill="#008000"/>
<path d="M1360.62 347.934V646.361L1478.46 646.137C1604.81 645.969 1599.6 646.081 1619.49 643.167C1659.44 637.396 1693.51 624.845 1723.99 604.561C1747.19 589.096 1763.1 572.063 1772.46 552.619C1777.62 541.917 1780.14 533.176 1781.37 521.802C1782.21 514.181 1782.21 181.686 1781.37 174.066C1780.14 162.691 1777.62 153.95 1772.46 143.248C1763.1 123.749 1747.36 106.883 1723.99 91.3621C1693.62 71.0785 1659.5 58.4712 1619.49 52.6999C1599.6 49.7862 1604.81 49.8983 1478.46 49.7302L1360.62 49.506V347.934ZM1467.65 147.731C1471.9 148.459 1472.97 149.187 1469.33 148.851C1468.09 148.739 1467.09 148.739 1467.09 148.907C1467.09 149.131 1467.81 150.308 1468.71 151.653C1471.29 155.519 1473.19 160.058 1474.71 165.941C1476.05 171.096 1476.16 172.497 1476.44 188.802C1476.72 206.284 1476.22 219.004 1474.65 233.068C1473.59 242.705 1471.74 253.856 1465.74 287.139C1465.29 289.772 1464.51 294.031 1464.06 296.664C1463.61 299.298 1462.83 303.556 1462.32 306.19C1460.92 313.586 1459.63 320.926 1459.58 322.159C1459.52 322.999 1459.91 323.336 1461.2 323.448L1462.88 323.616L1466.97 311.681C1469.21 305.125 1473.75 291.677 1477 281.816C1480.25 271.954 1483.11 263.381 1483.39 262.765C1483.61 262.148 1484.34 259.851 1484.96 257.722C1485.58 255.537 1486.81 251.278 1487.76 248.196C1490.23 239.792 1491.01 236.878 1491.96 231.947C1495.83 212.224 1496.56 185.888 1493.48 174.234C1489.89 160.562 1484.46 152.829 1476.61 150.084C1474.43 149.355 1473.53 148.795 1474.31 148.795C1475.88 148.739 1487.14 151.373 1488.49 152.157C1489.05 152.437 1489.78 152.661 1490.17 152.661C1491.68 152.661 1499.86 156.64 1503.67 159.161C1512.02 164.764 1523.4 177.428 1528.33 186.673C1531.35 192.332 1533.76 201.746 1533.76 207.741C1533.76 211.719 1532.47 222.141 1531.19 228.305C1530.07 233.796 1527.04 244.666 1526.42 245.339C1526.14 245.675 1525.92 246.235 1525.92 246.683C1525.92 251.11 1505.92 284.001 1494.65 298.065C1494.43 298.345 1492.08 301.371 1489.5 304.789C1486.92 308.151 1482.16 314.202 1478.96 318.237C1469.05 330.676 1468.21 332.133 1467.48 337.848C1466.81 342.723 1466.75 342.779 1464.79 343.843C1463.67 344.404 1461.65 345.076 1460.31 345.3C1457.22 345.861 1456.55 347.485 1459.3 347.766C1461.76 347.99 1462.1 349.391 1462.21 359.028L1462.32 366.817L1459.52 367.881C1457.34 368.722 1456.38 368.834 1455.09 368.385C1454.2 368.105 1452.85 367.825 1452.18 367.825C1451.45 367.825 1450.84 367.489 1450.84 367.097C1450.84 366.761 1450.78 362.278 1450.72 357.179L1450.56 347.934L1451.84 347.766C1452.8 347.598 1453.08 347.261 1452.97 346.365C1452.85 345.412 1452.18 345.076 1449.49 344.516C1446.02 343.843 1445.23 343.171 1445.23 340.874C1445.23 338.016 1443.44 334.374 1439.85 330.003C1437.84 327.538 1435.15 324.232 1433.91 322.719C1430.66 318.685 1426.85 314.258 1423.66 310.672C1414.58 300.642 1398.45 279.742 1390.27 267.527C1379.45 251.222 1372.39 230.658 1372.39 215.305C1372.39 211.047 1374.13 198.328 1375.19 194.405C1377.6 185.832 1381.08 179.725 1387.07 173.505C1392.34 168.07 1401.19 160.506 1402.26 160.506C1402.42 160.506 1404.16 159.553 1406.07 158.321C1413.8 153.67 1426.57 149.692 1438.45 148.235C1441.03 147.899 1443.27 147.506 1443.44 147.338C1444.06 146.778 1463.84 147.058 1467.65 147.731ZM1577.75 170.592C1585.76 171.768 1590.02 174.178 1592.09 178.716C1593.1 180.846 1593.16 187.625 1593.16 347.822C1593.16 527.125 1593.33 516.703 1590.58 519.785C1589.29 521.129 1590.08 521.914 1592.71 521.914C1595.06 521.914 1597.08 520.737 1597.08 519.336C1597.08 517.935 1599.71 517.823 1601.56 519.112C1602.46 519.785 1603.24 520.569 1603.24 520.849C1603.24 521.634 1601.79 521.465 1601 520.513C1600.39 519.785 1600.16 519.841 1598.99 520.961C1597.98 521.914 1597.64 522.81 1597.64 524.883C1597.64 526.733 1597.92 527.629 1598.48 527.853C1598.93 528.077 1599.32 528.526 1599.32 528.918C1599.32 529.31 1598.93 529.758 1598.48 529.982C1597.08 530.487 1597.42 533.456 1599.04 534.689C1600.72 536.034 1600.83 536.482 1599.38 536.09C1598.09 535.754 1597.25 536.93 1598.42 537.379C1598.93 537.547 1599.32 538.331 1599.32 539.004C1599.32 539.732 1599.6 540.516 1599.88 540.685C1600.22 540.853 1600.44 541.637 1600.44 542.366C1600.44 543.038 1600.83 543.766 1601.28 543.99C1601.73 544.159 1602.12 544.663 1602.12 545.167C1602.12 545.615 1602.4 546.008 1602.68 546.008C1603.02 546.008 1603.24 546.4 1603.24 546.848C1603.24 547.464 1602.57 547.689 1600.72 547.689C1599.32 547.689 1598.2 547.464 1598.2 547.24C1598.2 546.96 1597.58 546.4 1596.8 546.008C1596.07 545.615 1595.57 545.111 1595.68 544.887C1595.85 544.663 1595.57 544.159 1595.12 543.766C1594.67 543.374 1594.28 542.702 1594.28 542.309C1594.28 541.861 1594.05 541.525 1593.77 541.525C1593.49 541.525 1593.16 541.021 1592.99 540.404C1592.77 539.508 1592.21 539.284 1590.19 539.284C1588.79 539.284 1587.44 539.06 1587.27 538.723C1587.11 538.443 1586.43 538.163 1585.82 538.163C1585.26 538.163 1584.75 537.883 1584.75 537.603C1584.75 537.267 1584.36 537.042 1583.91 537.042C1583.46 537.042 1583.07 537.435 1583.07 537.883C1583.07 538.331 1583.35 538.723 1583.63 538.723C1583.97 538.723 1584.19 541.581 1584.19 546.232C1584.19 552.171 1584.36 553.852 1585.03 554.412C1585.48 554.805 1585.87 555.421 1585.93 555.757C1585.93 556.598 1591.53 560.576 1592.71 560.576C1593.27 560.576 1593.72 560.8 1593.72 561.024C1593.72 561.304 1594.33 561.865 1595.12 562.257C1595.96 562.705 1596.52 563.49 1596.52 564.274C1596.52 565.003 1596.74 565.675 1597.02 565.843C1597.3 566.011 1597.64 567.188 1597.75 568.477C1597.92 570.158 1597.75 570.886 1597.02 571.222C1595.96 571.838 1593.16 570.718 1593.16 569.765C1593.16 569.429 1592.54 568.869 1591.81 568.421C1591.08 568.028 1590.3 567.244 1590.19 566.684C1590.02 566.067 1589.4 565.619 1588.79 565.619C1588.11 565.619 1587.44 565.339 1587.27 565.059C1587.11 564.722 1586.55 564.498 1586.1 564.498C1584.92 564.498 1581.95 562.201 1581.95 561.304C1581.95 560.912 1581.73 560.576 1581.39 560.576C1581.11 560.576 1580.83 559.848 1580.83 558.951C1580.83 558.055 1580.49 557.214 1580.16 557.102C1579.71 556.934 1579.49 556.093 1579.6 554.861C1579.71 553.628 1579.49 552.675 1578.93 552.227C1578.42 551.779 1578.03 551.107 1578.03 550.714C1578.03 550.266 1577.8 549.93 1577.47 549.93C1577.19 549.93 1576.91 549.538 1576.91 549.089C1576.91 548.585 1576.52 548.081 1576.07 547.913C1575.62 547.689 1575.23 547.24 1575.23 546.848C1575.23 546.4 1574.61 545.615 1573.83 544.999C1573.1 544.383 1572.59 543.766 1572.76 543.654C1572.87 543.486 1572.65 543.038 1572.15 542.646C1571.7 542.253 1571.31 541.581 1571.31 541.189C1571.31 540.741 1571.08 540.404 1570.74 540.404C1570.46 540.404 1570.18 540.012 1570.18 539.564C1570.18 539.06 1569.79 538.555 1569.34 538.387C1568.28 537.939 1568.22 535.137 1569.29 534.297C1569.85 533.793 1571.31 533.737 1574.11 534.017C1578.53 534.409 1580.83 533.737 1580.83 531.887C1580.83 530.599 1582.12 529.198 1583.18 529.198C1584.19 529.254 1585.59 530.375 1586.04 531.607C1586.43 532.728 1587.55 532.392 1587.55 531.159C1587.55 530.767 1587.95 530.263 1588.45 530.094C1588.9 529.926 1589.18 529.534 1589.01 529.254C1588.79 528.974 1589.29 528.245 1590.08 527.629C1590.92 526.957 1591.48 525.948 1591.48 525.108C1591.48 523.763 1591.25 523.651 1588.84 523.483C1587.33 523.371 1585.2 523.595 1584.08 523.987C1579.99 525.276 1573.32 525.836 1561.44 525.836H1549.45V522.754C1549.45 519.504 1548.67 518.72 1547.77 521.017C1546.99 523.202 1544.75 524.323 1542.17 523.987C1539.42 523.651 1538.97 524.211 1540.26 526.396C1541.1 527.797 1541.16 528.357 1540.6 529.87C1540.26 530.879 1539.82 532.84 1539.59 534.241C1539.14 536.93 1537.18 540.516 1536.29 540.236C1536 540.124 1535.5 539.228 1535.16 538.275C1534.49 536.034 1533.88 536.034 1530.85 538.331C1529.51 539.34 1526.93 541.077 1525.08 542.197C1520.93 544.719 1518.07 547.464 1518.07 548.865C1518.07 549.986 1516.28 551.611 1515.1 551.611C1514.49 551.611 1513.2 551.107 1512.19 550.49C1511.07 549.818 1508.83 549.201 1506.64 548.977C1503.11 548.641 1502.95 548.697 1502.95 549.874C1502.95 550.882 1502.61 551.051 1500.31 551.051C1498.58 551.051 1496.95 550.602 1495.27 549.65C1492.86 548.193 1491.91 546.904 1489.72 541.861C1489.11 540.404 1487.59 537.939 1486.42 536.482C1485.24 534.969 1484.01 532.952 1483.67 531.944C1482.77 529.198 1479.75 527.349 1476.89 527.741L1474.65 528.077L1471.29 523.539C1467.42 518.328 1465.8 516.871 1464.34 517.263C1463.72 517.431 1462.99 517.095 1462.55 516.479C1461.2 514.574 1460.53 514.574 1455.49 516.311C1450.05 518.16 1447.87 518.328 1445.79 517.151C1445.01 516.703 1444.06 516.367 1443.72 516.311C1442.71 516.311 1440.75 520.457 1440.75 522.642C1440.75 525.22 1442.04 529.31 1443.5 531.383C1444.17 532.336 1445.12 534.353 1445.57 535.866C1446.52 539.116 1448.37 540.909 1453.47 543.318C1455.43 544.215 1457 545.223 1457 545.503C1457 545.783 1459.52 548.529 1462.6 551.611C1465.68 554.637 1468.21 557.382 1468.21 557.718C1468.21 558.783 1466.81 558.391 1464.84 556.654C1463.78 555.757 1462.66 555.029 1462.43 554.973C1462.21 554.973 1457.39 552.059 1451.73 548.529C1446.07 544.999 1441.14 542.085 1440.81 542.085C1439.63 542.085 1440.19 546.344 1441.76 549.426C1444.17 554.132 1445.79 555.981 1449.49 558.335C1455.65 562.201 1458.34 566.011 1457.39 569.485C1457 570.998 1457.39 571.334 1461.93 574.024C1467.03 577.049 1468.6 578.506 1469.05 580.579C1469.27 581.42 1469.66 582.653 1470 583.325C1470.28 583.997 1470.45 585.23 1470.34 586.127C1470.05 588.928 1471.79 588.48 1473.75 585.23C1474.71 583.661 1475.49 582.092 1475.49 581.7C1475.55 580.692 1477.17 578.899 1479.41 577.386C1481.82 575.705 1486.53 571.895 1490.79 568.028C1492.58 566.403 1494.43 565.059 1494.88 565.059C1495.33 565.059 1496.89 563.882 1498.41 562.369C1500.37 560.352 1501.32 558.895 1502.16 556.262C1502.72 554.3 1503.51 552.731 1503.79 552.731C1504.12 552.731 1505.13 554.356 1506.03 556.374C1506.98 558.335 1507.88 560.016 1508.16 560.016C1508.38 560.016 1508.55 560.352 1508.55 560.8C1508.55 561.192 1510.9 563.938 1513.82 566.852C1519.42 572.511 1519.25 572.399 1529.51 575.256C1532.42 576.041 1534.88 578.058 1536.34 580.86C1537.63 583.325 1539.65 584.95 1544.41 587.247C1565.14 597.333 1567.5 598.846 1572.2 605.234C1577.47 612.35 1584.25 618.233 1593.44 623.612C1600.27 627.647 1601.51 628.655 1600.61 629.552C1600.05 630.112 1599.32 630.112 1596.97 629.496C1595.34 629.103 1593.61 628.599 1593.16 628.375C1589.8 626.75 1588.11 626.638 1584.3 627.759C1582.23 628.375 1579.32 629.159 1577.75 629.552C1576.24 629.944 1573.43 631.289 1571.59 632.577C1569.46 634.034 1566.99 635.155 1564.86 635.603C1563.01 635.995 1559.26 636.836 1556.46 637.452C1547.77 639.357 1541.89 640.87 1541.22 641.43C1540.71 641.767 1540.38 641.655 1540.15 640.982C1539.59 639.525 1540.32 634.202 1541.33 632.689C1542.34 631.121 1546.2 628.375 1547.38 628.375C1548.67 628.375 1549.79 626.582 1551.41 621.987C1552.76 618.177 1552.87 617.337 1552.31 615.544C1551.97 614.423 1551.3 610.389 1550.85 606.522C1549.79 597.781 1549.73 597.557 1547.94 597.557C1546.48 597.557 1545.64 598.342 1538.86 605.906C1535.89 609.212 1534.49 610.277 1530.63 612.126C1528.05 613.358 1525.25 614.479 1524.41 614.703C1519.98 615.768 1518.52 617.169 1515.61 623.164C1515.22 624.004 1514.49 624.453 1513.59 624.453C1512.08 624.453 1511.46 623.052 1510.51 617.729C1510.17 615.936 1505.86 603.945 1504.51 601.087C1504.18 600.415 1504.12 599.182 1504.29 598.286C1505.8 592.29 1505.08 588.648 1501.55 585.23C1499.36 583.101 1498.91 582.877 1497.17 583.213C1494.04 583.773 1493.08 585.51 1491.74 593.075C1491.35 595.092 1490.67 597.445 1490.23 598.398C1488.55 601.592 1488.38 602.04 1488.38 602.992C1488.38 604.449 1483.5 609.772 1481.04 611.061C1479.86 611.621 1478.29 612.126 1477.62 612.126C1476.89 612.126 1475.21 613.022 1473.81 614.087C1472.41 615.151 1469.49 617.281 1467.37 618.793C1465.18 620.306 1462.43 622.716 1461.26 624.173C1457.17 629.159 1455.71 629.832 1453.41 628.095C1452.35 627.31 1452.35 627.254 1453.75 626.022C1454.53 625.293 1456.22 623.164 1457.45 621.259C1458.74 619.354 1461.2 616.608 1462.99 615.095C1470.34 608.876 1472.63 606.354 1473.02 604.001C1473.19 602.768 1473.59 601.311 1473.92 600.751C1474.71 599.294 1473.02 598.902 1471.57 600.247C1470.39 601.367 1463.72 603.721 1461.82 603.721C1460.42 603.721 1460.75 603.104 1464.06 599.686C1466.64 596.997 1468.77 593.859 1468.77 592.682C1468.77 592.458 1466.41 592.234 1463.56 592.234C1460.75 592.178 1456.44 591.842 1454.03 591.45L1449.72 590.665L1444.5 593.243C1441.7 594.644 1438.51 596.437 1437.44 597.221C1436.38 598.006 1435.2 598.678 1434.87 598.678C1433.02 598.678 1425.45 594.7 1422.93 592.402C1415.26 585.51 1409.93 583.773 1401.81 585.51C1395.03 586.911 1393.85 587.415 1389.65 590.553C1387.41 592.234 1384.66 594.251 1383.6 595.036C1380.63 597.277 1367.74 604.841 1366.96 604.841C1365.89 604.841 1366.06 602.992 1367.24 601.704C1368.8 599.967 1369.93 598.062 1374.3 589.601C1376.59 585.174 1379.23 580.187 1380.18 578.506C1381.08 576.825 1382.31 574.528 1382.81 573.463C1385.5 568.084 1391.27 559.736 1395.48 555.253C1398.05 552.451 1401.64 548.417 1403.49 546.288C1411.05 537.491 1413.24 536.146 1416.88 537.883C1420.3 539.508 1424.05 538.107 1427.92 533.793C1430.38 531.047 1433.47 525.556 1433.47 523.875C1433.47 523.371 1433.97 521.914 1434.53 520.625C1435.15 519.28 1435.82 517.487 1436.04 516.591C1436.66 514.125 1437.78 513.565 1441.98 513.509C1444.06 513.509 1447.19 513.117 1448.99 512.668C1453.36 511.492 1463.78 506.113 1467.93 502.807C1471.23 500.229 1472.46 498.941 1476.22 494.178C1477.17 492.945 1480.31 489.583 1483.17 486.726C1487.99 481.963 1488.55 481.571 1490.62 481.571C1492.8 481.571 1497.9 483.588 1497.9 484.484C1497.9 484.708 1498.18 484.932 1498.52 484.932C1498.86 484.932 1500.76 486.277 1502.72 487.958C1504.74 489.583 1507.04 491.264 1507.88 491.712C1510.29 492.889 1514.26 495.635 1516.11 497.26C1518.47 499.333 1524.41 501.742 1527.26 501.742C1528.61 501.742 1530.63 502.134 1531.69 502.583C1534.77 503.871 1539.59 503.591 1544.69 501.854L1549.17 500.341L1549.34 335.158L1549.45 170.031H1561.67C1568.34 170.031 1575.62 170.312 1577.75 170.592ZM1608.4 524.267C1609.97 525.556 1611.76 527.517 1612.49 528.582C1614.11 531.103 1619.1 536.314 1621.85 538.387C1623.7 539.788 1624.26 539.9 1628.07 539.788C1632.21 539.62 1632.21 539.62 1634.96 541.917C1636.47 543.206 1640.22 546.848 1643.36 550.042C1646.44 553.18 1651.49 558.055 1654.51 560.856C1657.54 563.602 1660.62 566.459 1661.35 567.132C1662.08 567.804 1662.64 569.037 1662.64 569.821C1662.64 570.606 1662.81 571.222 1663.09 571.222C1663.31 571.222 1663.98 572.119 1664.54 573.183C1665.16 574.304 1667.01 576.041 1669.08 577.386C1673.06 579.963 1674.07 581.028 1674.68 582.989C1674.91 583.773 1675.97 585.398 1676.98 586.575C1679.11 589.04 1679.34 589.713 1677.93 589.713C1676.87 589.713 1674.4 587.584 1674.4 586.631C1674.4 585.342 1671.04 581.308 1668.69 579.795C1667.34 578.899 1665.94 577.946 1665.55 577.554C1665.16 577.162 1664.37 576.601 1663.87 576.265C1663.03 575.817 1663.03 575.649 1663.76 575.144C1664.43 574.64 1664.32 574.584 1663.25 574.864C1661.97 575.256 1661.91 575.144 1662.25 573.295C1662.53 571.614 1662.36 571.222 1661.46 570.942C1660.9 570.718 1660.4 570.27 1660.4 569.877C1660.4 569.429 1659.44 568.421 1658.32 567.524C1657.15 566.684 1651.26 561.024 1645.27 555.085C1634.34 544.215 1630.7 541.189 1629.24 541.749C1628.85 541.917 1628.35 541.805 1628.12 541.469C1627.95 541.133 1626.89 541.021 1625.6 541.245C1623.08 541.693 1620.28 540.685 1619.89 539.172C1619.72 538.611 1619.1 538.163 1618.48 538.163C1617.76 538.163 1616.19 536.706 1614.06 534.129C1612.26 531.887 1609.24 528.526 1607.33 526.62C1605.37 524.715 1603.8 522.922 1603.8 522.53C1603.8 521.297 1605.65 521.97 1608.4 524.267ZM1548.33 543.318C1549 544.663 1549.73 545.84 1549.96 546.008C1550.46 546.344 1552.25 550.21 1552.25 550.882C1552.25 551.555 1555.62 555.533 1556.23 555.533C1556.85 555.533 1558.59 556.878 1561.28 559.511C1563.97 562.033 1565.7 562.817 1568.9 562.817C1571.03 562.817 1571.98 563.21 1574.72 565.283C1576.52 566.627 1579.21 568.308 1580.66 568.981C1584.64 570.774 1584.92 570.942 1585.54 572.007C1587.78 575.705 1591.76 578.282 1594.5 577.666C1600.72 576.377 1601.34 576.545 1606.61 580.748C1611.82 585.006 1618.76 590.049 1621.9 591.954C1623.64 593.019 1625.1 594.083 1625.1 594.363C1625.1 594.644 1625.66 595.652 1626.38 596.605C1629.75 601.311 1629.8 602.88 1626.72 604.954C1623.36 607.307 1622.74 607.083 1622.85 603.553C1622.97 601.984 1622.97 600.303 1622.91 599.911C1622.85 599.126 1617.14 595.316 1616.02 595.316C1615.63 595.316 1614.67 594.812 1613.89 594.195C1613.11 593.579 1612.1 593.075 1611.65 593.075C1610.64 593.019 1607.73 590.553 1607.73 589.769C1607.73 589.489 1606.94 588.48 1605.99 587.527C1604.42 585.959 1603.97 585.79 1600.61 585.79C1597.92 585.79 1596.58 586.071 1595.85 586.743C1594.61 587.864 1594.56 589.321 1595.68 590.273C1596.3 590.777 1596.52 591.786 1596.41 593.523C1596.07 598.79 1592.54 597.669 1591.81 592.066C1591.64 590.553 1591.03 588.424 1590.52 587.415C1589.01 584.39 1584.75 580.523 1581.67 579.403C1580.16 578.786 1578.2 577.89 1577.36 577.33C1576.57 576.713 1575.51 576.265 1575.06 576.265C1574.56 576.265 1573.99 575.985 1573.83 575.705C1573.66 575.368 1572.99 575.144 1572.37 575.144C1571.81 575.144 1571.31 574.976 1571.31 574.696C1571.31 574.472 1569.46 573.463 1567.21 572.455C1565.03 571.39 1562.73 570.326 1562.23 570.045C1560.72 569.261 1560.32 569.373 1558.25 571.334C1556.12 573.351 1555.28 576.377 1556.57 577.442C1556.96 577.778 1557.3 578.562 1557.3 579.067C1557.3 579.627 1557.91 580.579 1558.7 581.196C1559.93 582.204 1560.04 582.597 1559.76 584.894C1559.37 587.64 1558.19 588.368 1557.52 586.239C1557.07 584.838 1553.43 581.308 1552.37 581.308C1551.97 581.308 1551.25 581.084 1550.69 580.804C1550.18 580.523 1548.56 579.795 1547.1 579.235C1543.63 577.946 1543.4 576.321 1546.48 574.864L1548.56 573.856L1547.04 572.791C1545.64 571.782 1545.53 571.39 1545.53 567.804C1545.53 564.834 1545.7 563.938 1546.31 563.938C1546.76 563.938 1547.32 564.218 1547.49 564.554C1547.72 564.834 1548.28 565.059 1548.72 564.947C1549.9 564.722 1550.18 561.865 1549.12 561.473C1548.67 561.304 1548.33 560.8 1548.33 560.296C1548.33 559.848 1548.11 559.455 1547.83 559.455C1547.55 559.455 1547.21 558.951 1547.04 558.335C1546.88 557.55 1546.26 557.214 1545.31 557.214C1544.07 557.214 1543.85 557.438 1543.85 558.895C1543.85 560.576 1542.28 564.498 1541.55 564.498C1541.33 564.498 1540.66 563.602 1539.98 562.537C1539.37 561.473 1538.47 560.576 1537.97 560.576C1537.35 560.576 1537.13 561.136 1537.13 562.537C1537.13 564.106 1536.9 564.498 1536.06 564.498C1535.44 564.498 1534.77 564.722 1534.6 565.059C1534.1 565.843 1530.96 565.731 1530.91 564.89C1530.51 559.679 1530.57 559.231 1532.64 556.934C1533.76 555.701 1535.39 553.684 1536.29 552.451C1537.18 551.219 1538.75 549.37 1539.76 548.361C1540.77 547.352 1541.61 546.288 1541.61 546.008C1541.61 545.223 1545.64 540.965 1546.43 540.965C1546.76 540.965 1547.66 542.029 1548.33 543.318Z" fill="#008000"/>
<path d="M1446.74 149.972C1444.56 153.278 1443.27 170.648 1443.78 189.923C1444.06 202.979 1444.56 212.616 1446.63 248.757C1447.08 256.433 1447.7 267.416 1448.03 273.131C1448.31 278.846 1448.82 287.027 1449.15 291.341C1449.43 295.656 1449.99 304.453 1450.33 310.897C1450.61 317.396 1451 322.887 1451.17 323.112C1451.62 323.784 1455.21 323.672 1455.6 322.944C1456.16 322.159 1457.45 306.638 1459.52 277.333C1459.97 270.834 1460.47 264.278 1460.64 262.765C1460.81 261.196 1461.2 255.313 1461.48 249.597C1461.82 243.882 1462.32 235.925 1462.6 231.947C1463.95 214.017 1464.39 195.246 1463.72 184.992C1462.71 168.239 1460.19 152.83 1458.06 150.252C1457.22 149.188 1456.38 148.963 1452.35 148.851C1447.87 148.627 1447.53 148.683 1446.74 149.972Z" fill="#008000"/>
<path d="M1429.82 151.429C1425.62 152.83 1423.77 154.006 1421.19 156.92C1415.93 162.916 1412.23 172.833 1411.11 183.984C1409.37 200.905 1411.56 226.12 1416.21 242.593C1419.96 255.985 1420.69 258.338 1422.54 264.166C1425.79 274.252 1436.38 305.966 1436.83 307.03C1437.11 307.647 1438.51 311.681 1440.02 315.996L1442.71 323.84L1444.62 324.008L1446.46 324.176L1446.07 321.207C1445.85 319.582 1445.34 316.444 1444.95 314.315C1444.22 310.504 1442.77 302.66 1440.97 292.742C1440.53 290.109 1439.91 286.691 1439.57 285.178C1439.01 281.928 1437.33 272.459 1435.99 264.726C1435.48 261.812 1434.7 257.386 1434.25 254.92C1432.74 246.235 1431.78 239.736 1431.22 234.469C1428.65 210.879 1428.53 177.876 1430.94 168.239C1432.29 163.028 1434.31 157.873 1436.55 154.174C1437.61 152.381 1438.51 150.813 1438.51 150.644C1438.51 150.084 1432.34 150.588 1429.82 151.429Z" fill="#008000"/>
<path d="M1405.17 160.673C1400.52 163.923 1393.01 171.264 1390.6 174.85C1384.94 183.31 1381.92 192.948 1381.92 202.305C1381.92 208.413 1383.88 221.412 1385.78 228.024C1388.25 236.373 1388.98 238.838 1390.71 243.713C1391.78 246.795 1393.29 250.661 1394.02 252.286C1394.75 253.911 1395.36 255.368 1395.36 255.536C1395.36 256.937 1406.29 278.733 1411.11 286.914C1413.91 291.677 1425.23 309.103 1426.46 310.504C1426.74 310.84 1428.98 313.922 1431.45 317.396C1435.43 323.055 1437 324.736 1437.67 324.007C1437.84 323.895 1434.92 317.732 1431.28 310.336C1417.78 283.16 1412.85 272.402 1406.74 256.881C1404.27 250.549 1400.69 240.295 1399.85 236.989C1399.57 236.037 1398.89 233.515 1398.28 231.386C1397.66 229.201 1396.6 224.55 1395.92 221.02C1394.8 215.305 1394.69 213.344 1394.97 203.09C1395.25 191.883 1396.09 185.44 1398.16 178.996C1400.52 171.712 1404.44 164.54 1408.19 160.673C1411.33 157.368 1409.88 157.368 1405.17 160.673Z" fill="#008000"/>
<path d="M1497.9 158.769C1497.9 159.049 1498.46 160.002 1499.19 160.898C1500.54 162.523 1503.9 168.07 1505.07 170.592C1508.88 178.885 1510.73 188.578 1511.18 201.97C1511.41 210.487 1511.29 212.672 1510.23 218.499C1507.82 231.891 1501.66 250.83 1494.54 266.687C1494.26 267.303 1493.48 269.04 1492.86 270.609C1492.19 272.122 1490.95 274.924 1490.06 276.773C1489.22 278.622 1487.37 282.544 1486.08 285.458C1484.73 288.372 1479.86 298.289 1475.32 307.535C1466.97 324.344 1466.64 325.185 1469.16 325.241C1469.55 325.241 1470.89 323.56 1472.13 321.431C1475.43 316.051 1477.34 313.026 1482.66 304.789C1490.28 293.078 1490.79 292.238 1494.76 285.458C1506.53 265.398 1514.77 246.291 1519.64 228.025C1522.11 218.723 1522.5 216.874 1523.45 209.254C1525.13 195.526 1522.28 183.255 1514.99 173.113C1509.89 165.997 1497.9 155.967 1497.9 158.769Z" fill="#008000"/>
<path d="M1451.4 350.736C1451.4 351.8 1451.68 352.697 1451.96 352.697C1452.29 352.697 1452.52 352.192 1452.52 351.576C1452.52 350.343 1453.41 350.063 1453.8 351.128C1454.2 352.361 1454.87 351.184 1454.48 349.951C1454.25 349.167 1453.64 348.775 1452.74 348.775C1451.56 348.775 1451.4 349.055 1451.4 350.736Z" fill="#008000"/>
<path d="M1456.83 349.166C1456.16 349.782 1456.38 350.455 1457.17 350.119C1458.12 349.782 1459.24 352.136 1459.24 354.377C1459.24 355.722 1459.46 356.058 1460.42 356.058C1461.48 356.058 1461.54 355.834 1461.14 352.808C1460.98 351.071 1460.7 349.446 1460.53 349.166C1460.25 348.662 1457.33 348.662 1456.83 349.166Z" fill="#008000"/>
<path d="M1488.77 483.644C1487.87 485.213 1487.82 488.967 1488.66 490.76C1489.78 493.057 1489.61 493.45 1486.98 494.682C1484.4 495.915 1483.73 497.708 1484.06 502.471L1484.29 506.281L1481.93 507.402C1476.78 509.811 1476.05 512.5 1479.75 515.638C1480.81 516.535 1481.65 517.543 1481.65 517.88C1481.65 519 1484.9 524.379 1486.58 526.116C1487.48 527.013 1488.54 528.694 1488.94 529.758C1489.33 530.823 1490 532.112 1490.45 532.616C1490.9 533.12 1491.51 535.081 1491.91 536.987C1492.47 539.676 1493.08 540.909 1494.82 542.702C1498.57 546.68 1499.69 547.128 1506.08 547.128C1509.22 547.128 1512.58 547.409 1513.53 547.745C1515.16 548.305 1515.5 548.249 1516.56 547.184C1517.68 546.064 1517.79 545.447 1517.74 538.836C1517.74 532.28 1517.63 531.439 1516.22 528.582C1515.38 526.845 1514.71 525.164 1514.71 524.884C1514.71 524.547 1515.89 524.099 1517.4 523.931C1518.86 523.819 1520.93 523.483 1522.05 523.315C1523.34 523.091 1524.24 523.147 1524.46 523.539C1525.02 524.379 1527.21 524.323 1529.11 523.315C1529.95 522.866 1531.58 522.138 1532.64 521.634C1535.56 520.401 1536.56 518.328 1536.56 513.509C1536.56 510.315 1536.79 509.139 1537.74 507.85C1539.2 505.777 1538.69 504.992 1536.28 505.44C1535 505.665 1533.15 505.384 1530.74 504.6C1528.72 503.928 1526.09 503.423 1524.8 503.423C1523.56 503.423 1522.11 503.199 1521.55 502.919C1521.04 502.639 1519.59 501.966 1518.35 501.462C1517.12 500.902 1515.38 499.781 1514.43 498.997C1513.53 498.156 1510.85 496.307 1508.55 494.85C1506.19 493.45 1502.61 490.928 1500.54 489.303C1494.93 484.821 1489.61 482.243 1488.77 483.644Z" fill="#008000"/>
<path d="M1104.33 352.641C1103.88 353.369 1102.99 362.727 1103.38 363.063C1104.11 363.847 1105.06 363.007 1106.69 359.981C1108.7 356.339 1108.65 355.779 1106.07 353.369C1105.23 352.529 1104.56 352.249 1104.33 352.641Z" fill="#008000"/>
<path d="M1026.11 374.829V390.238L1027.4 390.798C1029.75 391.807 1041.46 393.151 1050.48 393.432C1058.11 393.656 1060.29 393.544 1064.94 392.591C1072.67 390.966 1081.36 386.428 1082.82 383.234C1083.43 381.833 1082.03 373.708 1080.74 371.187C1080.01 369.842 1079.96 369.786 1073.68 370.01C1062.59 370.29 1053.68 368.553 1043.31 363.959C1037.37 361.325 1030.65 359.42 1027.57 359.42H1026.11V374.829Z" fill="#008000"/>
<path d="M1085.67 368.722C1085 369.002 1085.11 369.731 1086.07 372.028C1086.74 373.653 1087.86 380.657 1087.47 381.217C1087.35 381.497 1087.52 381.946 1087.91 382.282C1088.76 383.01 1093.52 381.553 1098.56 378.976C1105.12 375.67 1105.56 374.381 1100.69 372.14C1095.93 369.955 1087.35 367.994 1085.67 368.722Z" fill="#008000"/>
<path d="M1089.15 388.501C1087.63 389.062 1084.72 390.35 1082.76 391.303C1080.8 392.312 1076.26 394.273 1072.67 395.673C1066.68 398.027 1065.73 398.251 1058.61 398.699C1051.55 399.147 1046.39 399.091 1031.83 398.307L1026.11 398.027L1026.22 408.841L1026.39 419.655L1028.63 419.543C1029.86 419.431 1033.4 418.871 1036.48 418.254C1046.84 416.181 1049.59 416.013 1060.4 416.574C1066.06 416.854 1072.06 417.302 1073.85 417.47L1076.99 417.806L1079.23 414.78C1080.46 413.156 1083.26 410.018 1085.45 407.889C1090.55 402.958 1092.51 399.82 1093.35 395.561C1093.74 393.712 1094.19 391.247 1094.47 390.126C1094.69 388.95 1094.75 387.885 1094.58 387.717C1094.02 387.157 1091.95 387.493 1089.15 388.501Z" fill="#008000"/>
<path d="M395.916 423.073C394.179 424.081 393.619 424.25 393.843 423.577C394.347 422.288 393.731 422.513 388.968 425.258C386.559 426.659 383.981 427.78 383.253 427.78C381.124 427.78 381.124 428.284 383.197 430.973C385.27 433.663 387.007 436.745 386.671 437.025C386.559 437.137 385.382 436.353 384.037 435.288C382.076 433.775 381.124 433.383 379.275 433.439C377.986 433.495 375.857 433.103 374.456 432.542C372.214 431.702 371.71 431.646 370.141 432.318L368.404 433.103L375.184 440.835C381.684 448.175 382.02 448.456 382.188 446.887C382.3 445.71 383.869 443.525 387.511 439.434C394.683 431.366 396.14 429.461 397.709 425.875C399.838 421.056 399.67 420.776 395.916 423.073Z" fill="#008000"/>
<path d="M365.771 429.46C365.603 429.74 365.659 430.021 365.996 430.021C366.276 430.021 366.724 429.74 366.892 429.46C367.06 429.124 367.004 428.9 366.668 428.9C366.388 428.9 365.94 429.124 365.771 429.46Z" fill="black"/>
<path d="M416.816 524.771C414.071 526.284 411.661 527.517 411.381 527.517C411.101 527.517 410.877 526.9 410.877 526.116C410.877 524.547 410.149 524.379 408.187 525.5C406.899 526.172 407.011 526.34 413.791 532.784C417.545 536.426 421.355 539.844 422.139 540.46L423.652 541.525L424.045 532.896C424.269 528.133 424.269 523.987 424.101 523.651C422.98 521.858 421.747 522.026 416.816 524.771Z" fill="#008000"/>
<path d="M468.086 527.18C467.581 527.797 468.646 533.232 472.792 551.386C475.762 564.274 478.284 574.92 478.396 575.032C478.508 575.144 482.99 570.886 488.369 565.507C495.597 558.278 498.847 554.636 501.033 551.162L503.946 546.456L502.097 546.848C501.089 547.072 499.688 547.968 499.015 548.809C497.559 550.602 494.029 552.171 491.339 552.171C489.714 552.171 489.098 552.619 487.249 554.916L485.007 557.662L483.27 556.317L481.533 554.916L486.352 548.697C490.555 543.374 491.115 542.365 490.555 541.469C489.154 539.227 489.77 537.322 492.964 533.736L496.046 530.262L494.813 528.637C493.412 526.676 493.356 526.676 492.067 527.853C491.115 528.693 490.835 528.693 488.649 527.797C487.305 527.293 485.904 526.676 485.456 526.508C484.839 526.284 484.727 526.676 485.007 528.525C485.175 529.814 485.232 530.879 485.175 530.879C485.119 530.879 483.158 530.262 480.917 529.478C478.676 528.693 476.715 528.189 476.603 528.301C476.434 528.413 476.771 529.31 477.275 530.318C478.227 532.111 478.059 533.68 476.995 533.68C476.659 533.68 476.098 533.064 475.762 532.279C475.314 531.271 474.697 530.879 473.577 530.879C472.288 530.879 471.784 530.43 470.831 528.637C469.599 526.228 469.094 525.948 468.086 527.18Z" fill="#008000"/>
<path d="M397.149 540.404C396.645 541.189 398.438 543.486 402.248 547.128C406.002 550.658 409.756 553.348 419.842 559.791L426.79 564.218L423.82 564.386C421.747 564.498 420.234 564.218 418.777 563.49L416.704 562.369L415.808 563.994C414.967 565.395 414.631 565.563 413.062 565.227C411.549 564.946 411.325 565.002 411.605 565.787C412.165 567.188 411.437 566.964 406.058 563.938C400.679 560.912 400.231 560.744 400.231 561.809C400.231 562.201 401.968 563.77 404.041 565.227C410.653 569.877 410.148 569.317 408.635 570.942C407.907 571.726 407.403 572.455 407.571 572.567C408.075 573.071 429.648 586.855 429.704 586.743C429.928 586.519 436.652 556.934 436.652 556.261C436.652 555.925 435.363 555.477 433.794 555.253C430.768 554.805 427.686 553.404 420.963 549.201L416.76 546.624L415.583 547.745L414.351 548.865L410.26 546.792C407.963 545.671 404.713 543.654 402.976 542.309C400.006 539.9 397.877 539.228 397.149 540.404Z" fill="#008000"/>
<path d="M285.421 593.971L281.891 598.173L280.49 596.884L279.145 595.652L268.219 601.087C262.224 604.057 256.677 606.522 255.892 606.522C254.828 606.522 251.69 607.699 250.737 608.483C250.625 608.595 252.53 618.009 253.763 623.276C254.043 624.508 254.155 624.452 257.069 621.707C259.366 619.522 260.487 618.849 261.832 618.849C263.344 618.849 264.969 617.56 273.094 609.716C278.305 604.729 284.917 598.509 287.83 595.876C290.688 593.242 292.929 590.945 292.705 590.721C292.481 590.497 291.585 590.161 290.688 589.993C289.175 589.768 288.671 590.161 285.421 593.971Z" fill="#008000"/>
<path d="M397.429 591.058C397.429 592.403 399.67 595.765 402.304 598.23C413.846 609.156 413.734 609.044 418.665 610.725C421.186 611.566 423.484 612.014 423.764 611.79C423.988 611.51 424.885 608.204 425.725 604.45C427.462 596.941 427.462 596.997 424.212 594.7L422.643 593.523L422.027 595.26C421.579 596.493 421.074 596.997 420.234 596.997C417.824 596.941 414.687 595.933 413.454 594.812C411.941 593.355 411.437 593.355 411.437 594.644C411.437 596.549 410.82 596.381 408.523 593.859C406.338 591.506 406.17 591.45 405.217 592.291C404.265 593.187 403.984 593.131 401.407 592.01C398.773 590.89 397.429 590.554 397.429 591.058Z" fill="#008000"/>
<path d="M352.435 611.79C352.267 612.406 351.819 617.505 351.427 623.108C350.866 631.009 350.866 633.642 351.427 635.155C352.043 636.948 351.987 637.172 350.642 638.293C349.354 639.414 348.569 639.582 343.862 639.582H338.595V635.715C338.595 633.53 338.371 631.625 338.035 631.457C337.699 631.233 337.475 632.69 337.475 635.323V639.582H334.897H332.32L332.824 631.569C333.048 627.199 333.272 621.371 333.272 618.626C333.272 614.311 333.16 613.583 332.152 612.91C331.143 612.294 330.471 612.518 326.044 614.984C323.299 616.496 320.889 617.729 320.609 617.729C320.329 617.729 320.105 617.113 320.105 616.328C320.105 614.647 319.6 614.591 316.743 616.048C315.062 616.889 314.502 617.505 314.502 618.57C314.502 620.195 312.26 622.044 311.588 620.923C311.252 620.419 310.859 620.587 310.131 621.595C309.122 622.828 309.01 622.884 307.385 621.988C305.817 621.203 305.592 621.203 304.976 621.988C304.36 622.716 304.136 622.716 303.295 621.932C301.95 620.699 301.502 620.867 299.373 623.052C298.308 624.117 297.3 625.013 297.076 625.013C296.851 625.013 296.403 624.229 296.011 623.332C295.619 622.38 295.114 621.483 294.834 621.371C294.61 621.203 293.209 621.819 291.752 622.772C289.287 624.341 289.007 624.397 288.11 623.556C287.158 622.716 286.822 622.772 283.292 624.733C280.21 626.414 279.313 626.694 278.529 626.19C277.8 625.742 277.184 625.742 276.4 626.134C275.391 626.694 275.279 626.526 275.279 624.565C275.279 623.388 275.111 622.268 274.943 622.044C274.775 621.876 273.654 622.1 272.477 622.492C271.357 622.884 266.874 624.005 262.616 625.013C258.357 625.966 254.771 626.862 254.659 626.974C254.547 627.086 255.332 631.401 256.34 636.612L258.245 646.025H337.195H416.2L418.834 634.539C420.346 628.207 421.467 622.548 421.411 621.988C421.187 620.531 419.506 619.522 418.665 620.363C418.161 620.867 418.217 621.315 418.834 622.324L419.73 623.669L414.855 622.66C412.222 622.1 409.308 621.651 408.412 621.651C407.235 621.651 406.17 620.979 404.601 619.354C402.472 617.169 402.36 617.113 401.351 618.009C400.343 618.962 400.119 618.962 397.878 618.009C396.533 617.505 395.132 616.889 394.684 616.721C394.067 616.496 393.955 616.889 394.235 618.738C394.404 620.026 394.46 621.091 394.404 621.091C394.347 621.091 392.386 620.475 390.145 619.69C387.904 618.906 385.943 618.402 385.831 618.514C385.662 618.626 385.999 619.522 386.503 620.531C387.456 622.324 387.287 623.893 386.223 623.893C385.887 623.893 385.326 623.276 384.99 622.492C384.542 621.483 383.925 621.091 382.805 621.091C381.516 621.091 381.012 620.643 380.059 618.85C378.771 616.328 378.378 616.16 377.034 617.673C376.361 618.402 376.193 619.186 376.473 620.195C376.697 621.091 376.529 621.988 376.137 622.548C375.465 623.276 375.24 623.22 373.84 621.876C372.495 620.587 372.103 620.475 371.374 621.091C370.59 621.707 370.142 621.427 367.788 618.962C366.331 617.337 364.875 616.048 364.538 616.048C364.202 616.048 363.53 615.88 363.025 615.712C362.409 615.488 362.129 615.656 362.129 616.328C362.129 617.225 362.017 617.225 360.672 616.328C359.888 615.824 358.319 614.479 357.142 613.303C354.509 610.669 352.828 610.109 352.435 611.79Z" fill="#008000"/>
<path d="M463.256 702.693L448.894 733.47C447.184 731.418 443.935 729.196 439.148 726.802C434.36 724.066 428.547 721.672 421.708 719.621C415.21 717.569 408.029 715.859 400.164 714.491C392.299 712.781 384.604 711.926 377.081 711.926C369.558 711.926 362.377 712.781 355.537 714.491C349.04 715.859 343.227 718.253 338.097 721.672C332.968 725.092 328.864 729.709 325.787 735.522C323.051 741.335 321.683 748.346 321.683 756.553C321.683 767.496 325.787 778.438 333.994 789.381C342.543 799.982 355.537 808.36 372.978 814.516C395.547 823.407 413.158 832.811 425.811 842.728C438.806 852.645 448.381 862.562 454.536 872.479C461.033 882.396 465.137 892.142 466.847 901.717C468.557 911.292 469.412 920.183 469.412 928.39C468.386 956.773 459.324 978.829 442.225 994.56C425.127 1010.29 399.822 1018.16 366.309 1018.16C352.631 1018.16 337.584 1016.62 321.17 1013.54C305.098 1010.8 287.487 1006.36 268.337 1000.2L279.621 964.296C290.222 968.4 303.388 972.332 319.118 976.094C335.191 979.513 351.092 981.223 366.822 981.223C376.055 981.223 384.775 980.368 392.983 978.658C401.19 976.949 408.371 974.213 414.526 970.451C420.682 966.348 425.469 961.047 428.889 954.55C432.65 948.053 434.531 940.017 434.531 930.442C434.189 914.027 430.257 900.862 422.733 890.945C415.552 881.028 406.49 872.821 395.547 866.323C384.604 859.826 372.807 854.013 360.154 848.883C347.501 843.754 335.704 837.598 324.761 830.417C314.16 823.236 305.269 814.174 298.087 803.231C290.906 792.288 287.316 777.755 287.316 759.63C287.316 744.926 289.538 732.444 293.984 722.185C298.429 711.926 304.585 703.719 312.45 697.564C320.657 691.067 330.061 686.45 340.662 683.714C351.605 680.637 363.403 679.098 376.055 679.098C392.47 679.098 408.371 681.321 423.759 685.766C439.148 689.87 452.313 695.512 463.256 702.693ZM710.496 728.341L687.927 742.703C682.455 734.838 674.248 727.828 663.305 721.672C652.362 715.517 640.736 712.439 628.425 712.439C614.062 712.439 600.726 716.03 588.415 723.211C576.446 730.051 565.845 739.967 556.612 752.962C547.721 765.957 540.711 781.516 535.582 799.64C530.452 817.764 527.887 837.769 527.887 859.655C528.229 878.805 531.649 896.074 538.146 911.463C544.986 926.851 553.706 940.017 564.307 950.959C574.908 961.56 586.705 969.767 599.7 975.581C612.695 981.394 625.689 984.301 638.684 984.301C655.782 984.301 671.17 980.539 684.849 973.016C698.528 965.151 710.838 952.669 721.781 935.571L742.299 965.322C726.911 983.788 710.325 997.296 692.543 1005.84C674.761 1014.39 655.953 1018.67 636.119 1018.67C617.995 1018.67 600.384 1014.56 583.286 1006.36C566.187 998.15 550.97 986.695 537.633 971.99C524.297 956.944 513.525 938.991 505.318 918.131C497.453 896.929 493.52 873.504 493.52 847.857C493.52 828.365 496.085 808.702 501.214 788.868C506.344 769.034 514.209 751.081 524.81 735.009C535.753 718.937 549.602 705.942 566.358 696.025C583.457 685.766 603.803 680.637 627.399 680.637C645.181 680.637 661.766 684.227 677.155 691.409C692.543 698.59 703.657 710.901 710.496 728.341ZM813.086 870.94V1043.29H775.128V716.03L799.749 693.46C807.614 692.434 815.479 691.58 823.345 690.896C831.552 690.212 839.588 689.87 847.453 689.87C865.919 689.87 883.872 691.751 901.312 695.512C918.753 698.932 934.312 704.574 947.99 712.439C961.669 719.963 972.612 729.709 980.819 741.677C989.368 753.646 993.643 768.18 993.643 785.278C993.643 800.666 990.907 813.661 985.436 824.262C979.964 834.863 972.612 843.754 963.379 850.935C954.146 857.774 943.716 863.075 932.089 866.836C920.462 870.256 908.494 872.65 896.183 874.017L977.228 1003.28L950.555 1021.75L860.277 876.069C852.07 876.069 844.033 875.898 836.168 875.556C828.303 875.214 820.609 873.675 813.086 870.94ZM815.137 840.163C828.474 843.925 843.862 845.805 861.303 845.805C872.587 845.805 884.043 844.95 895.67 843.241C907.297 841.189 917.727 837.94 926.96 833.495C936.535 828.707 944.229 822.381 950.042 814.516C955.856 806.65 958.762 796.905 958.762 785.278C958.762 775.361 956.198 766.47 951.068 758.605C945.939 750.739 938.757 744.242 929.524 739.113C920.633 733.641 910.032 729.538 897.722 726.802C885.753 723.724 872.758 722.185 858.738 722.185C852.24 722.185 845.743 722.527 839.246 723.211C832.749 723.895 826.08 724.921 819.241 726.289C817.531 744.413 816.334 763.563 815.65 783.739C815.308 803.915 815.137 822.723 815.137 840.163ZM1165.99 1001.23H1043.91V972.503H1083.92V716.03H1026.47V688.331L1139.32 681.15V710.901L1102.39 713.978V970.451H1165.99V1001.23ZM1243.96 723.211L1254.22 842.215C1266.87 842.215 1280.89 841.702 1296.28 840.676C1312.01 839.308 1326.72 836.401 1340.39 831.956C1354.07 827.51 1365.53 821.013 1374.76 812.464C1384.34 803.915 1389.12 792.117 1389.12 777.071C1389.12 765.444 1386.56 755.869 1381.43 748.346C1376.3 740.48 1369.46 734.496 1360.91 730.392C1352.36 725.947 1342.62 722.869 1331.67 721.159C1321.07 719.45 1309.96 718.595 1298.33 718.595C1288.07 718.595 1278.16 719.108 1268.58 720.134C1259.01 720.817 1250.8 721.843 1243.96 723.211ZM1255.25 874.017L1267.56 1040.21L1234.73 1042.26L1210.11 710.901L1226.52 691.409C1238.15 690.383 1249.77 689.528 1261.4 688.844C1273.03 688.16 1284.48 687.818 1295.77 687.818C1313.55 687.818 1329.96 689.015 1345.01 691.409C1360.4 693.802 1373.74 698.419 1385.02 705.258C1396.31 711.755 1405.2 720.988 1411.69 732.957C1418.19 744.584 1421.44 759.801 1421.44 778.609C1421.44 800.495 1415.97 817.593 1405.03 829.904C1394.42 842.215 1380.92 851.619 1364.5 858.116C1348.09 864.271 1330.14 868.375 1310.64 870.427C1291.15 872.137 1272.69 873.334 1255.25 874.017ZM1553.78 722.185H1441.96V692.434H1701.51V718.082H1585.58L1613.28 1013.54L1580.45 1016.62L1553.78 722.185Z" fill="black"/>
</svg>
